<?xml version="1.0" encoding="utf-8"?>
<!-- Generator: Adobe Illustrator 19.0.0, SVG Export Plug-In . SVG Version: 6.00 Build 0)  -->
<svg version="1.1" id="Layer_1" xmlns="http://www.w3.org/2000/svg" xmlns:xlink="http://www.w3.org/1999/xlink" x="0px" y="0px"
	 viewBox="0 0 96 96" style="enable-background:new 0 0 96 96;" xml:space="preserve">
<style type="text/css">
	.st0{fill:#E16B5A;}
	.st1{fill:#D16354;}
	.st2{fill:#B3B3B3;}
	.st3{fill:#A6A6A6;}
	.st4{fill:#999999;}
	.st5{fill:#CCCCCC;}
	.st6{fill:#BFBFBF;}
	.st7{fill:#242424;}
	.st8{fill:#1A1A1A;}
	.st9{fill:#F5F5F5;}
	.st10{fill:#E6E6E6;}
</style>
<g id="XMLID_1_">
	<circle id="XMLID_3_" class="st0" cx="48" cy="48" r="32.5"/>
	<path id="XMLID_4_" class="st1" d="M38.6,79.1c3,0.9,6.1,1.4,9.4,1.4c13.5,0,25-8.2,29.9-19.8c0-0.1-0.1-0.2-0.1-0.2
		c0-0.1-0.1-0.2-0.1-0.3c0-0.1-0.1-0.2-0.1-0.3c0-0.1-0.1-0.2-0.1-0.3c0-0.1-0.1-0.2-0.1-0.3c0-0.1-0.1-0.2-0.1-0.3
		c0-0.1-0.1-0.2-0.1-0.3c0-0.1-0.1-0.2-0.1-0.3c0-0.1-0.1-0.2-0.1-0.3c0-0.1-0.1-0.2-0.1-0.3c0-0.1-0.1-0.2-0.1-0.3
		c0-0.1-0.1-0.2-0.1-0.3c0-0.1-0.1-0.2-0.1-0.3c0-0.1-0.1-0.2-0.1-0.3c0-0.1-0.1-0.2-0.1-0.3c0-0.1-0.1-0.2-0.1-0.3
		c0-0.1-0.1-0.2-0.1-0.3c0-0.1-0.1-0.2-0.1-0.3c0-0.1-0.1-0.2-0.1-0.3c0-0.1-0.1-0.2-0.1-0.3c0-0.1-0.1-0.2-0.1-0.3
		c0-0.1-0.1-0.2-0.1-0.3c0-0.1-0.1-0.2-0.1-0.3c0-0.1-0.1-0.2-0.1-0.3c0-0.1-0.1-0.2-0.1-0.3c0-0.1-0.1-0.2-0.1-0.3
		c0-0.1-0.1-0.2-0.1-0.3c0-0.1-0.1-0.2-0.1-0.3c0-0.1-0.1-0.2-0.1-0.3c0-0.1-0.1-0.2-0.1-0.3c0-0.1-0.1-0.2-0.1-0.3
		c0-0.1-0.1-0.2-0.1-0.3c0-0.1-0.1-0.2-0.1-0.3c0-0.1-0.1-0.2-0.1-0.3c0-0.1-0.1-0.2-0.1-0.3c0-0.1-0.1-0.2-0.1-0.3
		c0-0.1-0.1-0.2-0.1-0.3c0-0.1-0.1-0.2-0.1-0.3c0-0.1-0.1-0.2-0.1-0.3c0-0.1-0.1-0.2-0.1-0.3c0-0.1-0.1-0.2-0.1-0.3
		c0-0.1-0.1-0.2-0.1-0.3c0-0.1-0.1-0.2-0.1-0.3c0-0.1-0.1-0.2-0.1-0.3c0-0.1-0.1-0.2-0.1-0.3c0-0.1-0.1-0.2-0.1-0.3
		c0-0.1-0.1-0.2-0.1-0.3c0-0.1-0.1-0.2-0.1-0.3c0-0.1-0.1-0.2-0.1-0.3c0-0.1-0.1-0.2-0.1-0.3c0-0.1-0.1-0.2-0.1-0.3
		c0-0.1-0.1-0.2-0.1-0.3c0-0.1-0.1-0.2-0.1-0.3c0-0.1-0.1-0.2-0.1-0.3c0-0.1-0.1-0.2-0.1-0.3c0-0.1-0.1-0.2-0.1-0.3
		c0-0.1-0.1-0.2-0.1-0.3c0-0.1-0.1-0.2-0.1-0.3c0-0.1-0.1-0.2-0.1-0.3c0-0.1-0.1-0.2-0.1-0.3c0-0.1-0.1-0.2-0.1-0.3
		c0-0.1-0.1-0.2-0.1-0.3c0-0.1-0.1-0.2-0.1-0.3c0-0.1-0.1-0.2-0.1-0.3c0-0.1-0.1-0.2-0.1-0.3c0-0.1-0.1-0.2-0.1-0.3
		c0-0.1-0.1-0.2-0.1-0.3c0-0.1-0.1-0.2-0.1-0.3c0-0.1-0.1-0.2-0.1-0.3c0-0.1-0.1-0.2-0.1-0.3c0-0.1-0.1-0.2-0.1-0.3
		c0-0.1-0.1-0.2-0.1-0.3c0-0.1-0.1-0.2-0.1-0.3c0-0.1-0.1-0.2-0.1-0.3c0-0.1-0.1-0.2-0.1-0.3c0-0.1-0.1-0.2-0.1-0.3
		c0-0.1-0.1-0.2-0.1-0.3c0-0.1-0.1-0.2-0.1-0.3c0-0.1-0.1-0.2-0.1-0.3c0-0.1-0.1-0.2-0.1-0.3c0-0.1-0.1-0.2-0.1-0.3
		c0-0.1-0.1-0.2-0.1-0.3c0-0.1-0.1-0.2-0.1-0.3c-1.7-4.2-5.7-7.2-10.6-7.2c-2.9,0-5.9,1.4-8.2,3.8c-0.2,0-0.5,0-0.7,0
		c-0.2,0-0.5,0-0.7,0c-2.3-2.4-5.3-3.8-8.2-3.8c-6.4,0-11.4,5-11.4,11.4c0,1.8,0.4,3.6,1.1,5.1c0,0.1,0.1,0.2,0.1,0.3
		c0,0.1,0.1,0.2,0.1,0.3c0,0.1,0.1,0.2,0.1,0.3c0,0.1,0.1,0.2,0.1,0.3c0,0.1,0.1,0.2,0.1,0.3c0,0.1,0.1,0.2,0.1,0.3
		c0,0.1,0.1,0.2,0.1,0.3c0,0.1,0.1,0.2,0.1,0.3c0,0.1,0.1,0.2,0.1,0.3c0,0.1,0.1,0.2,0.1,0.3c0,0.1,0.1,0.2,0.1,0.3
		c0,0.1,0.1,0.2,0.1,0.3c0,0.1,0.1,0.2,0.1,0.3c0,0.1,0.1,0.2,0.1,0.3c0,0.1,0.1,0.2,0.1,0.3c0,0.1,0.1,0.2,0.1,0.3
		c0,0.1,0.1,0.2,0.1,0.3c0,0.1,0.1,0.2,0.1,0.3c0,0.1,0.1,0.2,0.1,0.3c0,0.1,0.1,0.2,0.1,0.3c0,0.1,0.1,0.2,0.1,0.3
		c0,0.1,0.1,0.2,0.1,0.3c0,0.1,0.1,0.2,0.1,0.3c0,0.1,0.1,0.2,0.1,0.3c0,0.1,0.1,0.2,0.1,0.3c0,0.1,0.1,0.2,0.1,0.3
		c0,0.1,0.1,0.2,0.1,0.3c0,0.1,0.1,0.2,0.1,0.3c0,0.1,0.1,0.2,0.1,0.3c0,0.1,0.1,0.2,0.1,0.3c0,0.1,0.1,0.2,0.1,0.3
		c0,0.1,0.1,0.2,0.1,0.3c0,0.1,0.1,0.2,0.1,0.3c0,0.1,0.1,0.2,0.1,0.3c0,0.1,0.1,0.2,0.1,0.3c0,0.1,0.1,0.2,0.1,0.3
		c0,0.1,0.1,0.2,0.1,0.3c0,0.1,0.1,0.2,0.1,0.3c0,0.1,0.1,0.2,0.1,0.3c0,0.1,0.1,0.2,0.1,0.3c0,0.1,0.1,0.1,0.1,0.2l-3,0.8
		c-0.3,0.1-0.4,0.4-0.4,0.6L38.6,79.1z"/>
	<path id="XMLID_5_" class="st2" d="M37.8,50.5L37.8,50.5c-5.9-0.4-10.2-5.2-10.2-11.4c0-6.4,5-11.4,11.4-11.4
		c3.1,0,6.2,1.5,8.6,4.2c0.5,0.5,0.4,1.3-0.1,1.8c-0.5,0.5-8.4,14.9-8.5,15.6C39.1,50,38.5,50.5,37.8,50.5z"/>
	<path id="XMLID_6_" class="st3" d="M47.7,31.9c-2.3-2.7-5.5-4.2-8.6-4.2c-0.3,0-0.5,0-0.8,0c2.9,0.2,5.7,1.7,7.9,4.2
		c0.5,0.5,0.4,1.3-0.1,1.8c-0.5,0.5-8.4,14.9-8.5,15.6c0,0.5-0.3,0.9-0.7,1.1c0.3,0,0.6,0.1,0.9,0.1l0.1,0c0.7,0,1.2-0.5,1.3-1.2
		c0.1-0.7,7.9-15.2,8.5-15.6C48.1,33.3,48.1,32.5,47.7,31.9z"/>
	<path id="XMLID_7_" class="st4" d="M37.3,48.4c-4.4-0.7-7.6-4.5-7.6-9.3c0-5.3,4.1-9.4,9.4-9.4c2.3,0,4.7,1.1,6.6,3.1
		c-0.5,0.8-1.6,2.7-4.4,7.7C38.6,45.6,37.6,47.6,37.3,48.4z"/>
	<path id="XMLID_8_" class="st2" d="M58.2,50.5c-0.7,0-1.2-0.5-1.3-1.2c-0.1-0.7-7.9-15.2-8.5-15.6c-0.5-0.5-0.6-1.3-0.1-1.8
		c2.3-2.7,5.5-4.2,8.6-4.2c6.4,0,11.4,5,11.4,11.4C68.3,45.3,64.1,50.1,58.2,50.5L58.2,50.5z"/>
	<path id="XMLID_9_" class="st3" d="M56.9,27.7c-0.2,0-0.5,0-0.7,0c6,0.4,10.6,5.3,10.6,11.4c0,5.9-3.8,10.5-9.2,11.3
		c0.2,0.1,0.3,0.1,0.5,0.1l0.1,0c5.8-0.4,10.1-5.2,10.1-11.4C68.3,32.7,63.3,27.7,56.9,27.7z"/>
	<path id="XMLID_10_" class="st4" d="M58.7,48.4c-0.3-0.9-1.3-2.8-4.1-8c-2.7-5-3.8-6.9-4.4-7.7c1.9-2,4.3-3.1,6.6-3.1
		c5.3,0,9.4,4.1,9.4,9.4C66.3,44,63.1,47.8,58.7,48.4z"/>
	<path id="XMLID_11_" class="st5" d="M48,68.3c-7.1,0-11.4-20.1-11.4-25.4c0-6.4,5-11.4,11.4-11.4s11.4,5,11.4,11.4
		C59.4,48.2,55.1,68.3,48,68.3z"/>
	<path id="XMLID_12_" class="st6" d="M48,31.5c-0.3,0-0.7,0-1,0c5.9,0.5,10.4,5.3,10.4,11.4c0,5-3.9,23.5-10.4,25.3
		c0.3,0.1,0.7,0.1,1,0.1c7.1,0,11.4-20.1,11.4-25.4C59.4,36.5,54.4,31.5,48,31.5z"/>
	<path id="XMLID_13_" class="st7" d="M48,68.3c2.2,0,4-1.8,5.6-4.6c-0.4-0.9-0.9-1.3-0.9-1.4c-1.6-1.6-3.3-1.6-4.7-1.6
		s-3.1,0-4.7,1.6c-0.1,0.1-0.5,0.6-0.9,1.4C44,66.5,45.8,68.3,48,68.3z"/>
	<path id="XMLID_14_" class="st8" d="M48.5,68.3c0.1,0,0.2,0,0.3,0l0.1,0c0.1,0,0.2,0,0.3-0.1l0.1,0c0.1,0,0.2-0.1,0.3-0.1l0.1,0
		c0.2-0.1,0.5-0.2,0.7-0.4l0,0c0.1-0.1,0.2-0.2,0.4-0.2l0,0c1.1-0.8,2.1-2.1,3-3.6c-0.4-0.9-0.9-1.3-0.9-1.4
		c-0.1-0.1-0.1-0.1-0.2-0.2c-1.5,3.1-3.4,5.5-5.5,6l0.1,0c0.1,0,0.2,0.1,0.4,0.1l0.1,0c0.2,0,0.3,0,0.5,0c0.1,0,0.2,0,0.4,0
		L48.5,68.3z"/>
	<circle id="XMLID_15_" class="st9" cx="42.9" cy="44.2" r="2.5"/>
	<circle id="XMLID_16_" class="st7" cx="42.9" cy="44.2" r="1"/>
	<path id="XMLID_17_" class="st9" d="M53.1,46.7c-1.4,0-2.5-1.1-2.5-2.5s1.1-2.5,2.5-2.5s2.5,1.1,2.5,2.5S54.5,46.7,53.1,46.7z"/>
	<circle id="XMLID_18_" class="st7" cx="53.1" cy="44.2" r="1"/>
	<path id="XMLID_19_" class="st10" d="M33.3,65c-0.2,0-0.3-0.1-0.4-0.2c-0.1-0.2-0.1-0.6,0.2-0.7l9.1-5.4c0.2-0.1,0.6-0.1,0.7,0.2
		c0.1,0.2,0.1,0.6-0.2,0.7l-9.1,5.4C33.5,65,33.4,65,33.3,65z"/>
	<path id="XMLID_20_" class="st10" d="M32.2,61.9c-0.2,0-0.4-0.1-0.5-0.3c-0.1-0.3,0-0.6,0.3-0.7l10.2-4.4c0.3-0.1,0.6,0,0.7,0.3
		c0.1,0.3,0,0.6-0.3,0.7l-10.2,4.4C32.3,61.9,32.3,61.9,32.2,61.9z"/>
	<path id="XMLID_21_" class="st10" d="M31,58.7c-0.2,0-0.4-0.1-0.5-0.4c-0.1-0.3,0.1-0.6,0.4-0.6l11.4-3.2c0.3-0.1,0.5,0.1,0.6,0.4
		c0.1,0.3-0.1,0.6-0.4,0.6l-11.4,3.2L31,58.7z"/>
	<path id="XMLID_22_" class="st10" d="M62.7,65c0.2,0,0.3-0.1,0.4-0.2c0.1-0.2,0.1-0.6-0.2-0.7l-9.1-5.4c-0.2-0.1-0.6-0.1-0.7,0.2
		c-0.1,0.2-0.1,0.6,0.2,0.7l9.1,5.4C62.5,65,62.6,65,62.7,65z"/>
	<path id="XMLID_23_" class="st10" d="M63.8,61.9c0.2,0,0.4-0.1,0.5-0.3c0.1-0.3,0-0.6-0.3-0.7l-10.2-4.4c-0.3-0.1-0.6,0-0.7,0.3
		c-0.1,0.3,0,0.6,0.3,0.7l10.2,4.4C63.7,61.9,63.7,61.9,63.8,61.9z"/>
	<path id="XMLID_24_" class="st10" d="M65,58.7c0.2,0,0.4-0.1,0.5-0.4c0.1-0.3-0.1-0.6-0.4-0.6l-11.4-3.2c-0.3-0.1-0.5,0.1-0.6,0.4
		c-0.1,0.3,0.1,0.6,0.4,0.6l11.4,3.2C64.9,58.7,65,58.7,65,58.7z"/>
</g>
</svg>
