<?xml version="1.0" encoding="iso-8859-1"?>
<!-- Generator: Adobe Illustrator 19.0.0, SVG Export Plug-In . SVG Version: 6.00 Build 0)  -->
<svg version="1.1" id="Capa_1" xmlns="http://www.w3.org/2000/svg" xmlns:xlink="http://www.w3.org/1999/xlink" x="0px" y="0px"
	 viewBox="0 0 480 480" style="enable-background:new 0 0 480 480;" xml:space="preserve">
<g>
	<path style="fill:#7CDAAF;" d="M359.608,156.34c0.675-0.098,1.349-0.198,2.031-0.271
		C360.957,156.142,360.283,156.243,359.608,156.34z"/>
	<path style="fill:#7CDAAF;" d="M363.162,155.944c0.485-0.039,0.967-0.09,1.456-0.116
		C364.129,155.854,363.647,155.905,363.162,155.944z"/>
	<path style="fill:#7CDAAF;" d="M356.273,156.922c0.813-0.17,1.63-0.328,2.456-0.461
		C357.903,156.594,357.086,156.753,356.273,156.922z"/>
	<path style="fill:#7CDAAF;" d="M398.298,268.085c0-31.022-25.148-56.17-56.17-56.17c0-14.883-5.829-28.375-15.278-38.426
		c7.672-8.148,17.708-14.046,29.038-16.492c-11.823,2.538-22.255,8.809-30.041,17.503c-8.619-5.382-18.767-8.542-29.677-8.542
		c-27.602,0-50.505,19.926-55.23,46.168c-0.198,0.015-0.392,0.041-0.589,0.058c28.46,2.745,50.713,26.722,50.713,55.902
		c0,29.3-22.437,53.347-51.064,55.929c1.683,0.152,3.384,0.242,5.106,0.242h97.021C373.15,324.255,398.298,299.107,398.298,268.085z
		"/>
	<path style="fill:#65B1A8;" d="M423.83,211.915c0-31.022-25.148-56.17-56.17-56.17c-1.021,0-2.035,0.029-3.042,0.083
		c-0.489,0.026-0.97,0.077-1.456,0.116c-0.508,0.041-1.019,0.07-1.523,0.125c-0.683,0.074-1.357,0.173-2.031,0.271
		c-0.292,0.042-0.588,0.073-0.879,0.121c-0.826,0.134-1.643,0.292-2.456,0.461c-0.128,0.027-0.258,0.047-0.385,0.074
		c-11.33,2.446-21.365,8.344-29.038,16.492c9.448,10.051,15.278,23.543,15.278,38.426c31.022,0,56.17,25.148,56.17,56.17
		s-25.148,56.17-56.17,56.17h81.702c31.022,0,56.17-25.148,56.17-56.17S454.852,211.915,423.83,211.915z"/>
	<path style="fill:#7CDAAF;" d="M170.672,156.34c0.675-0.098,1.349-0.198,2.031-0.271
		C172.02,156.142,171.347,156.243,170.672,156.34z"/>
	<path style="fill:#7CDAAF;" d="M174.226,155.944c0.485-0.039,0.967-0.09,1.456-0.116
		C175.193,155.854,174.711,155.905,174.226,155.944z"/>
	<path style="fill:#7CDAAF;" d="M167.337,156.922c0.813-0.17,1.63-0.328,2.456-0.461
		C168.966,156.594,168.15,156.753,167.337,156.922z"/>
	<path style="fill:#7CDAAF;" d="M209.362,268.085c0-31.022-25.148-56.17-56.17-56.17c0-14.883-5.83-28.375-15.278-38.426
		c7.672-8.148,17.708-14.046,29.038-16.492c-11.823,2.538-22.255,8.809-30.041,17.503c-8.619-5.382-18.768-8.542-29.677-8.542
		c-27.602,0-50.505,19.926-55.23,46.168C22.935,214.264,0,238.469,0,268.085c0,31.022,25.148,56.17,56.17,56.17h97.021
		C184.214,324.255,209.362,299.107,209.362,268.085z"/>
	<path style="fill:#65B1A8;" d="M291.064,268.085c0-29.18-22.252-53.157-50.713-55.902c-1.796-0.173-3.616-0.268-5.458-0.268
		c0-31.022-25.148-56.17-56.17-56.17c-1.021,0-2.035,0.029-3.042,0.083c-0.489,0.026-0.97,0.077-1.456,0.116
		c-0.508,0.041-1.019,0.07-1.523,0.125c-0.682,0.074-1.357,0.173-2.031,0.271c-0.292,0.042-0.588,0.073-0.879,0.121
		c-0.826,0.134-1.643,0.292-2.456,0.461c-0.127,0.027-0.258,0.047-0.385,0.074c-11.33,2.446-21.366,8.344-29.038,16.492
		c9.448,10.051,15.278,23.543,15.278,38.426c31.022,0,56.17,25.148,56.17,56.17s-25.148,56.17-56.17,56.17h81.702
		c1.722,0,3.423-0.09,5.106-0.242C268.627,321.432,291.064,297.385,291.064,268.085z"/>
</g>
<g>
</g>
<g>
</g>
<g>
</g>
<g>
</g>
<g>
</g>
<g>
</g>
<g>
</g>
<g>
</g>
<g>
</g>
<g>
</g>
<g>
</g>
<g>
</g>
<g>
</g>
<g>
</g>
<g>
</g>
</svg>
