<?xml version="1.0" encoding="UTF-8"?>
<!DOCTYPE svg  PUBLIC '-//W3C//DTD SVG 1.1//EN'  'http://www.w3.org/Graphics/SVG/1.1/DTD/svg11.dtd'>
<svg version="1.1" viewBox="0 0 1249 1249" xmlns="http://www.w3.org/2000/svg">
 <path d="m305.78 375.43c0.795-1.198 2.833-2.227 2.386-3.594-0.709-2.161-10.436-1.594-12-1.333-2.792 0.465-4.941 2.557-8 1.333-6.115-2.446-0.673-2.01-2.667-5.333-0.97-1.617-2.551-2.793-4-4-1.231-1.026-2.567-1.95-4-2.667-1.257-0.628-3.157-0.209-4-1.333-0.8-1.067 0.8-2.933 0-4-2.365-3.153-9.768 0.155-12-1.333-0.757-0.505 0.876-5.208 0-6.667-0.824-1.374-2.867-1.534-4-2.667-0.703-0.702-0.737-1.871-1.333-2.666-0.755-1.006-1.882-1.685-2.667-2.667-1.001-1.251-1.385-3.039-2.667-4-0.711-0.533-1.804 0.216-2.666 0-0.964-0.241-1.744-0.964-2.667-1.333-1.305-0.522-3.006-0.34-4-1.334-3.133-3.132 8-4.897 8-9.333 0-1.602-1.95-2.567-2.667-4-1.257-2.514-1.409-5.486-2.666-8-1.297-2.594-4.422-4.49-2.667-8 2.867-5.734 3.512 4.244 6.667 2.667 0.795-0.398 0-1.778 0-2.667 0-1.469-0.161-15.839 0-16 0.702-0.703 0.63 1.964 1.333 2.667 0.55 0.55 4.277 2.389 5.333 1.333 1.988-1.988 0.418-6.313 2.667-8 1.067-0.8 2.735 0.422 4 0 2.679-0.893 8.354-7.804 9.333-8 1.378-0.276 2.637 1.674 4 1.333 0.862-0.215 3.772-9.257 4-9.333 1.193-0.398 1.5 2.2 2.667 2.667 1.238 0.495 2.685 0.219 4 0 5.217 3.139 3.177-3.461 5.333-4 1.364-0.341 2.614 1.102 4 1.333 1.316 0.219 2.685 0.219 4 0 1.387-0.231 2.622-1.609 4-1.333 1.233 0.246 1.589 2.02 2.667 2.666 2.195 1.317 5.507 1.749 8 1.334 2.773-0.462 5.189-2.667 8-2.667s5.244 3.218 8 2.667c1.367-0.274 3.125-4.552 5.333-4 1.22 0.305 1.778 1.777 2.667 2.666 1.333 0.445 2.614 1.103 4 1.334 2.63 0.438 5.524-0.991 8 0 5.16 2.064 0.592 3.258 4 6.666 4.249 4.249 3.85 0.075 6.667-1.333 1.987-0.994 4.474 0.365 6.666 0 1.387-0.231 2.614-1.102 4-1.333 1.316-0.22 2.762 0.495 4 0 2.199-0.88 4.01-5.344 5.334-6.667 0.702-0.703 2.115-0.506 2.666-1.333 2.58-3.869-5.328-4.531-6.666-5.334-1.078-0.646-1.589-2.02-2.667-2.666-1.509-0.906-7.713-2.094-8-2.667-0.629-1.257 1.778-2.667 1.333-4-1.225-3.677-6.828 6.404-2.666-4 0.825-2.063 5.571-3.762 4-5.333-1.561-1.561-10.456 2.946-9.334-2.667 0.498-2.487 5.797-6.61 5.334-8-0.422-1.265-2.685 0.219-4 0-1.387-0.231-3.007-0.34-4-1.333-0.205-0.205 0.25-5.916 0-6.667-1.778-5.333-3.111-3.111-6.667-6.667-1.033-1.033-2.536-5.464-1.333-6.666 0.702-0.703 1.333 3.66 1.333 2.666 0-4.6-5.333-10.311-5.333-14.666 0-0.994 0.63 1.964 1.333 2.666 1.133 1.133 2.445 3.056 4 2.667 2.93-0.732 0.622-11.91 1.333-13.333 0.717-1.434 2.999-1.416 4-2.667 0.878-1.097 0.889-2.667 1.334-4 0.444-1.333 1.102-2.614 1.333-4 0.398-2.391-1.506-8 4-8 1.602 0 1.233 3.283 2.667 4 4.004 2.002 1.982-6.642 4-9.333 0.596-0.795 1.839-1.885 2.666-1.334 1.17 0.78 0.49 2.876 1.334 4 1.185 1.581 5.26 1.802 6.666 1.334 1.521-0.507 2.446-3.056 4-2.667 1.364 0.341 0.34 3.006 1.334 4 0.628 0.629 1.777 0 2.666 0 2.667 0 5.37-0.438 8 0 1.387 0.231 2.622 1.609 4 1.333 1.233-0.246 1.41-2.666 2.667-2.666 5.359 0 8.702 14.259 13.333 13.333 1.572-0.314 1.95-2.567 2.667-4 0.629-1.257 0.889-2.667 1.333-4 0.445-1.333 1.778-2.667 1.334-4-0.864-2.591-6.06-5.114-8-6.667-0.982-0.785-2.667-1.409-2.667-2.666 0-11.701 3.229 0.979 5.333-5.334 0.352-1.054-3.466-5.065-4-6.666-0.421-1.265 0.496-2.762 0-4-0.467-1.168-2.02-1.589-2.666-2.667-0.719-1.198-4-10.721-4-12 0-2.703 4.036-8 1.333-8-1.333 0-1.193 4.596 0 4 0.883-0.442 3.744-7.796 4-9.333 0.316-1.897-0.755-6.434 1.333-8 6.765-5.074 1.864 7.207 6.667-4 0.722-1.685 1.032-3.526 1.333-5.334 0.146-0.876-0.889-2.666 0-2.666 3.486 0 4.092 6.438 6.667 0 0.514-1.285-0.459-11.695 0-12 10.667-7.111-2.667 10.666 8 0 1.988-1.988 0.153-6.743 2.667-8 2.751-1.376 0.354 6.34 1.333 6.666 3.04 1.014 4.795-5.333 8-5.333 1.602 0 2.419 2.403 4 2.667 2.209 0.368 7.942-4 9.333-4 1.257 0 1.434 2.42 2.667 2.666 1.378 0.276 2.743-0.704 4-1.333 1.433-0.717 2.48-3.173 4-2.667 1.265 0.422-0.8 2.934 0 4 0.271 0.361 14.768 5.158 16 5.334 1.76 0.251 3.624 0.488 5.333 0 1.387-0.396 5.496-5.172 8-2.667 2.769 2.768-4.436 6.667 4 6.667 1.988 0 3.556-1.778 5.334-2.667 0.889-0.444 1.724-1.648 2.666-1.333 5.891 1.963-5.815 6.364 4 8 1.315 0.219 2.667 0 4 0 1.334 0 2.685 0.219 4 0 1.387-0.231 2.614-1.565 4-1.334 6.504 1.084 1.237 4.599 8 2.667 1.912-0.546 3.448-2.038 5.334-2.667 0.843-0.281 1.795 0.175 2.666 0 1.378-0.275 2.695-1.855 4-1.333 5.214 2.086 1.068 10.801 2.667 12 3.437 2.578 7.008-1.338 9.333-2.667 1.726-0.986 3.556-1.777 5.334-2.666 0.889-0.445 1.839-1.885 2.666-1.334 4.157 2.771-1.729 8.375 4 10.667 6.171 2.468 11.718-6.404 16-5.333 3.284 0.821-0.222 6.112 0 6.666 5.842 14.606 1.788-6.651 8 2.667 1.498 2.246-4.359 6.564-4 8 0.518 2.072 7.098 1.033 8 1.333 1.521 0.507 2.667 1.778 4 2.667 1.334 0.889 2.567 1.95 4 2.667 1.257 0.628 3.007 0.339 4 1.333 3.686 3.686-1.365 4.26 4 5.333 1.945 0.389 7.778-0.518 9.334 0 3.199 1.067 1.989 5.17 6.666 4 0.964-0.241 0.631-1.964 1.334-2.666 2.702-2.702 7.843-1.742 10.666-4 1.252-1.001 2.16-2.48 2.667-4 0.422-1.265-1.193-3.404 0-4 1.124-0.563 1.881 1.685 2.667 2.666 1.001 1.252 1.95 2.567 2.666 4 0.912 1.825 1.612 7.045 4 8 2.996 1.199 6.099-3.628 6.667-5.333 0.422-1.265-1.265-3.578 0-4 1.52-0.507 2.419 2.403 4 2.667 5.311 3.901 3.111-4 5.333-4 1.257 0 1.589 2.02 2.667 2.666 1.246 0.748 6.407 2.289 8 1.334 2.156-1.294 3.085-6.458 5.333-5.334 3.19 1.595 3.244 10.282 10.667 5.334 3.607-2.405 3.245-5.334 8-5.334 1.405 0 2.609 1.532 4 1.334 1.968-0.281 3.608-1.681 5.333-2.667 1.392-0.795 2.429-2.981 4-2.667 1.572 0.315 1.534 2.867 2.667 4 0.995 0.995 6.141 4.31 8 4 4.191-0.698 9.294-9.99 12-10.666 0.964-0.241 0.713 1.89 1.333 2.666 1.178 1.473 2.314 3.157 4 4 1.912 0.956 9.474-0.421 12 0 5.049 0.842 2.8 2.2 8 1.334 2.031-0.339 7.572-2.953 8-2.667 1.11 0.74-1.109 3.26 0 4 1.17 0.78 2.667-0.889 4-1.333 1.334-0.445 2.614-1.103 4-1.334 1.315-0.219 2.667 0 4 0 1.334 0 3.261-1.109 4 0 3.715 5.572-12.957 6.063-1.333 8 2.521 0.42 9.479 0.42 12 0 1.386-0.231 2.614-1.102 4-1.333 1.315-0.219 3.26-1.109 4 0 0.78 1.169-2.113 2.831-1.333 4 0.739 1.109 2.666 0 4 0 2.222 0 4.474 0.365 6.666 0 2.038-0.34 11.216-2.745 13.334-1.333 2.912 1.941-2.769 2.768-4 4-0.586 0.585-3.137 6.065-1.334 6.666 1.521 0.507 2.567-1.95 4-2.666 1.257-0.629 2.667-0.889 4-1.334 1.334-0.444 2.743-1.962 4-1.333s0.889 2.667 1.334 4c0.444 1.333 1.102 2.614 1.333 4 0.219 1.315 0 2.667 0 4s-1.333 4 0 4c1.886 0 2.249-3.3 4-4 3.945-1.578 2.552 5.046 2.667 5.333 2.667 6.67 2.584-0.299 6.666 1.334 5.798 2.319 1.204 3.74 2.667 6.666 2.966 5.932 6.852 0.185 9.333 2.667 0.943 0.943-0.942 3.057 0 4 6.278 6.278 2.449-8.655 6.667 4 0.743 2.228-1.028 10.457 0 12 0.655 0.982 8.831-0.831 9.333-1.333 0.994-0.994 0.077-3.372 1.334-4 0.889-0.445 0.737 1.871 1.333 2.666 0.298 0.397 3.971 4.455 5.333 4 0.943-0.314 0.822-1.814 1.334-2.666 0.824-1.374 1.178-3.405 2.666-4 6.697-2.679 3.821 8.384 6.667 9.333 1.193 0.398 1.661-1.912 2.667-2.667 0.795-0.596 1.692-1.528 2.666-1.333 8.336 1.667 1.063 6.396 4 9.333 1.886 1.886 5.867-1.6 8 0 1.125 0.844 0.705 2.743 1.334 4 0.716 1.434 1.415 2.999 2.666 4 1.1 0.88 6.667 1.101 6.667 4 0 1.603-3.055 2.446-2.667 4 0.63 2.517 10.505-0.36 9.334 6.667-1.066 6.396-10.667 6.038-10.667 13.333 0 4.653 2.262 4.21 5.333 6.667 0.982 0.785 1.543 2.104 2.667 2.667 0.795 0.397 2.038-0.629 2.667 0 2.604 2.604-2.117 3.45-2.667 4-0.703 0.702-0.631 1.964-1.333 2.666-1.067 1.067-4.711 1.156-4 4 0.305 1.22 2.02 1.589 2.666 2.667 0.723 1.205 0.611 2.795 1.334 4 0.319 0.532 4.516 3.786 4 5.333-0.315 0.943-1.778 0.889-2.667 1.334-0.444 0.889-1.138 1.692-1.333 2.666-0.882 4.41 2.072 7.567 1.333 12-0.462 2.773-1.41 5.486-2.667 8-0.716 1.434-1.95 2.567-2.666 4-0.629 1.257-0.611 2.795-1.334 4-1.027 1.713-6.332 6.75-8 8-0.795 0.597-1.964 0.631-2.666 1.334-0.703 0.702-0.631 1.964-1.334 2.666-0.702 0.703-1.871 0.737-2.666 1.334-1.006 0.754-1.685 1.881-2.667 2.666-1.251 1.001-2.867 1.534-4 2.667-0.703 0.703-0.631 1.964-1.333 2.667-1.534 1.533-5.105 1.625-6.667 2.666-1.569 1.046-2.551 2.793-4 4-2.462 2.052-5.133 3.9-8 5.334-1.257 0.628-2.743 0.704-4 1.333-1.433 0.717-2.567 1.95-4 2.667-2.514 1.257-5.416 1.559-8 2.666-3.795 1.627-5.425 3.219-9.333 4-0.872 0.175-1.795-0.174-2.667 0-1.378 0.276-2.649 0.948-4 1.334-1.762 0.503-3.595 0.754-5.333 1.333-3.862 1.287-1.812 1.973-6.667 2.667-1.76 0.251-3.573-0.252-5.333 0-3.203 0.457-6.142 2.134-9.334 2.666-7.495 1.25 4.373-2.791-8 1.334-0.942 0.314-1.686 1.17-2.666 1.333-1.754 0.292-3.58-0.292-5.334 0-0.98 0.163-1.686 1.17-2.666 1.333-1.754 0.293-3.58-0.292-5.334 0-0.98 0.164-1.777 0.889-2.666 1.334-1.778 0.444-3.52 1.074-5.334 1.333-2.64 0.377-5.369-0.438-8 0-1.386 0.231-2.613 1.102-4 1.333-2.63 0.439-5.369-0.438-8 0-1.386 0.231-2.613 1.103-4 1.334-2.63 0.438-5.369-0.439-8 0-1.386 0.231-2.622 1.057-4 1.333-3.334 0.667-13.876 0-17.333 0h-120c-6.404 0-31.217-0.69-34.667 0-0.974 0.195-1.692 1.138-2.666 1.333-4.644 0.929-12.39-0.618-17.334 0-1.394 0.175-2.613 1.103-4 1.334-3.459 0.576-7.207-0.577-10.666 0-1.387 0.231-2.614 1.102-4 1.333-6.487 1.081-13.514-1.081-20 0-1.387 0.231-2.614 1.102-4 1.333-5.448 0.908-12.954-0.476-18.667 0-4 0.445-8 0.889-12 1.334-1.333 0.444-2.605 1.159-4 1.333-2.205 0.276-4.462-0.276-6.667 0-1.394 0.174-2.622 1.058-4 1.333-2.179 0.436-4.466-0.314-6.666 0-1.814 0.259-3.52 1.075-5.334 1.334-3.484 0.497-7.173-0.437-10.666 0-2.249 0.281-4.412 1.108-6.667 1.333-3.096 0.31-6.283-0.61-9.333 0-1.378 0.276-2.609 1.135-4 1.333-2.64 0.377-5.37-0.438-8 0-4.547 0.758-8.787 1.909-13.334 2.667-2.63 0.438-5.36-0.377-8 0-1.391 0.199-2.622 1.058-4 1.333-5.789 1.158-12.877-1.157-18.666 0-1.378 0.276-2.614 1.103-4 1.334-2.521 0.42-9.48 0.42-12 0-1.387-0.231-2.614-1.103-4-1.334-1.316-0.219-2.685 0.22-4 0-1.387-0.231-2.614-1.102-4-1.333-3.892-0.649-8.108 0.649-12 0-1.387-0.231-2.614-1.102-4-1.333-3.892-0.649-8.108 0.648-12 0-1.387-0.231-2.614-1.103-4-1.334-4.308-0.718-15.043 0-20 0" fill="#b8dc5d"/>
 <path d="m394 460.34c-2.944 2.073-6.181 4.219-9.833 4.828-4.155 0.692-20.218 0-25.334 0-3.206 0-7.507 0.526-10.666 0-1.387-0.231-2.614-1.103-4-1.334-1.315-0.219-2.685 0.22-4 0-1.387-0.231-2.614-1.102-4-1.333-1.315-0.219-2.685 0.219-4 0-1.387-0.231-2.614-1.102-4-1.333-1.315-0.22-2.685 0.219-4 0-4.459-0.743-11.473-3.825-16-5.334-3.829-1.276-8.395-2.197-12-4-1.434-0.716-2.567-1.95-4-2.666-1.257-0.629-2.795-0.611-4-1.334-1.078-0.646-1.589-2.02-2.667-2.666-1.205-0.723-2.795-0.611-4-1.334-1.078-0.646-1.542-2.104-2.667-2.666-0.795-0.398-1.871 0.397-2.666 0-1.125-0.563-1.589-2.02-2.667-2.667-1.205-0.723-2.876-0.49-4-1.333-0.795-0.597-0.538-2.071-1.333-2.667-2.249-1.687-5.59-1.22-8-2.667-12.402-7.441 9.344 2.673-6.667-5.333-1.257-0.629-2.795-0.61-4-1.333-1.078-0.647-1.542-2.105-2.667-2.667-0.795-0.398-1.804 0.216-2.666 0-0.964-0.241-1.744-0.964-2.667-1.333-3.46-1.384-8.913-2.148-12-4-1.078-0.647-1.661-1.913-2.667-2.667-1.59-1.193-3.743-1.474-5.333-2.667-1.006-0.754-1.661-1.912-2.667-2.666-1.59-1.193-3.629-1.644-5.333-2.667-10.876-6.526 1.707 0.947-6.667-5.333-2.929-2.198-6.611-2.612-9.333-5.334-0.703-0.702-0.631-1.964-1.333-2.666-2.894-2.894-2.341 0.815-5.334-6.667-0.522-1.305-1.102-2.614-1.333-4-0.393-2.357-0.444-11.556 0-12 1.503-1.503 6.667 7.203 6.667 0 0-2.576-4.508-9.967-4-12 0.551-2.206 6.11-0.963 6.666-1.333 0.74-0.493-0.739-2.174 0-2.667 4.318-2.878 9.431 5.333 10.667 5.333 0.889 0 0-1.777 0-2.666v-6.667c0-10.97 1.892 4.473 5.333 5.333 1.22 0.305 1.447-2.361 2.667-2.666 6.611-1.653-1.278 4.319 5.333 2.666 4.715-1.178 0.865-9.117 5.334-8 5.385 1.347 0.356 9.512 5.333 12 1.946 0.973 4.298-4.258 5.333-4 1.555 0.389 1.534 2.867 2.667 4 0.703 0.703 1.964 0.631 2.667 1.334 0.702 0.702 0.506 2.115 1.333 2.666 0.74 0.493 1.778 0 2.667 0s1.927 0.493 2.666 0c0.827-0.551 0.507-2.115 1.334-2.666 3.719-2.48 3.963 6.739 6.666 1.333 0.597-1.193-1.109-3.26 0-4 1.17-0.78 2.614 1.102 4 1.333 2.806 0.468 5.476-0.071 8-1.333 1.434-0.717 2.867-1.534 4-2.667 3.434-3.433 0.196-3.046-2.666-4-2.424-0.808-10.175-2.316-8-6.666 3.695-7.392 1.318 1.344 6.666-2.667 2.632-1.974 1.625-9.833 0-12-0.999-1.332-4.869-0.696-2.666-4 2.712-4.068 4.078 2.471 6.666-4 0.522-1.305-1.102-2.614-1.333-4-0.219-1.315 0-2.667 0-4s-0.686-2.857 0-4c0.824-1.374 3.283-1.233 4-2.667 0.533-1.066-7.277-9.333 0-9.333 1.805 0 4.244 9.061 5.333 9.333 5.933 1.484 8.067-11.977 12-10.666 4.008 1.336-1.973 8 4 8 7.937 0 7.447-6.023 10.667-6.667 1.378-0.276 2.614 1.102 4 1.333 1.315 0.22 2.735-0.421 4 0 9.485 3.162-0.616 1.692 6.667 5.334 4.838 2.419 5.555-5.556 6.666-6.667 1.257-1.257-1.257 4.076 0 5.333 0.994 0.994 2.622 1.609 4 1.334 3.082-0.617 3.686-5.673 6.667-6.667 1.723-0.574 8.06 3.98 12 2.667 3.04-1.014 4.96-4.32 8-5.334 1.265-0.421 2.807 0.597 4 0 1.778-0.889 1.013-4.23 2.667-5.333 3.378-2.252 2.584 1.723 4 2.667 0.739 0.493 1.795-0.175 2.666 0 5.25 1.05 7.281 3.385 12-1.334 1.423-1.422 2.134-3.911 0-5.333-0.739-0.493-2.666 0.889-2.666 0 0-0.994 1.814-0.822 2.666-1.333 1.374-0.825 2.567-1.95 4-2.667 1.262-0.631 5.975-0.795 5.334-4-0.742-3.706-4.884-3.565-2.667-8 1.884-3.769 10.406-6.639 9.333-12-1.021-5.105-7.855-1.189-10.666-4-5.664-5.663 5.333-8.902 5.333-12 0-2.188-7.589-0.923-8-1.333-0.703-0.703 0.631-1.964 1.333-2.667 0.803-0.803 9.123-5.756 8-8-0.397-0.795-1.795 0.174-2.666 0-1.757-0.351-10.792-3.033-12-4-1.252-1.001-2.667-2.398-2.667-4 0-5.078 8.834-4.332 8-9.333-0.31-1.86-2.793-2.552-4-4-2.611-3.134-4.659-7.956-5.333-12-0.219-1.316-1.193-3.404 0-4 0.029-0.015 7.979 8.885 10.666 9.333 6.149 1.025 6.45-7.783 8-9.333 0.629-0.629-0.174 1.795 0 2.666 0.276 1.379 0.611 2.795 1.334 4 1.846 3.078 3.279 3.232 6.666 2.667 1.387-0.231 2.614-1.102 4-1.333 1.316-0.22 2.735 0.421 4 0 1.521-0.507 2.567-1.95 4-2.667 1.257-0.629 2.667-0.889 4-1.333 1.334-0.445 2.695-1.856 4-1.334 4.583 1.833 0.15 6.42 6.667 5.334 6.686-1.115 6.17-10.327 4-14.667-0.717-1.433-1.95-2.567-2.667-4-0.628-1.257 0.072-4-1.333-4-1.333 0-0.422 2.735 0 4 0.507 1.52 1.95 2.567 2.667 4 0.46 0.921 1.737 8.465 5.333 6.667 1.639-0.82 0.83-3.572 1.333-5.334 1.043-3.65 1.985-6.761 1.334-10.666-0.231-1.387-1.103-2.614-1.334-4-0.438-2.631 0.439-5.37 0-8-1.755-10.53-1.333 2.4-1.333-8 0-2.667-0.438-5.37 0-8 0.231-1.387 1.102-2.614 1.333-4 0.22-1.316-1.265-3.579 0-4 5.715-1.905 3.813 10.38 8 9.333 4.781-1.195 4-17.107 4-21.333v2.666c0 2.908-1.265 6.211 4 5.334 2.909-0.485 5.536-4.404 6.667-6.667 0.629-1.257-0.072-4 1.333-4 1.334 0 0 2.667 0 4 1.334 0.444 2.622 1.609 4 1.333 5.751-1.15-0.863-5.075 6.667-4 1.968 0.281 3.346 2.667 5.333 2.667 1.603 0 2.567-1.95 4-2.667 1.257-0.628 2.667-0.889 4-1.333 1.334-0.444 2.667-1.778 4-1.333 0.844 0.281-0.795 2.269 0 2.666 5.87 2.935 7.504-3.834 12-5.333 1.265-0.422 2.857 0.686 4 0 2.011-1.207 3.536-8 6.667-8 1.405 0 1.102 2.614 1.333 4 0.806 4.832-1.893 11.698 1.334 16 1.192 1.589 9.309 2.012 10.666 1.333 2.936-1.468 2.124-4.938 6.667-2.666 0.599 0.299 2.515 5.755 2.667 6.666 0.219 1.316-0.74 2.891 0 4 0.493 0.74 1.777 0 2.666 0 3.806 0 8.282 0.744 12 0 1.379-0.275 2.831-2.113 4-1.333 1.11 0.74-0.942 3.057 0 4 0.943 0.943 2.667 0 4 0 5.031 0 15.567-0.739 20 0 9.068 1.511-1.214 0.929 8 4 2.985 0.995 8.702-0.55 12 0 9.068 1.511-1.214 0.929 8 4 1.265 0.422 2.667 0 4 0 1.778 0 3.58 0.292 5.334 0 0.98-0.163 1.692-1.138 2.666-1.333 1.308-0.262 2.667 0 4 0 1.334 0 2.891-0.74 4 0 0.74 0.493-0.628 2.038 0 2.666 1.256 1.256 10.517 2.076 12 1.334 1.687-0.844 3.157-2.314 4-4 0.445-0.889-2.222 0.444-2.666 1.333-2.05 4.099 0.033 4.527 2.666 4 1.379-0.276 2.903-0.455 4-1.333 1.252-1.001 1.096-3.686 2.667-4 1.286-0.258 9.914 7.652 12 8 6.03 1.005 2.603-1.952 5.333-4 2.249-1.687 5.805-0.911 8-2.667 1.252-1.001 1.293-3.176 2.667-4 4.687-2.812 4.361 2.27 6.667 4 2.762 2.072 9.703-4.193 10.666-4 1.572 0.314 1.179 3.405 2.667 4 0.723 0.289 10.454-3.742 12-4 1.315-0.219 2.667 0 4 0s2.933-0.8 4 0c3.635 2.726-0.468 8.998 1.333 12 5.235 8.724 2.423-1.455 8 1.333 1.56 0.78 0.606 7.88 4 5.334 0.236-0.177 5.077-10.717 5.334-12 0.261-1.308 0-2.667 0-4 0-2.223-0.366 4.474 0 6.666 0.231 1.387 1.102 2.614 1.333 4 0.219 1.316-0.219 2.685 0 4 0.231 1.387 1.102 2.614 1.333 4 0.22 1.316-1.192 3.404 0 4 1.125 0.563 1.882-1.685 2.667-2.666 9.829-14.744-2.867 2.866 5.333-5.334 0.703-0.702 0.34-2.666 1.334-2.666s0.712 1.89 1.333 2.666c1.924 2.405 4.499 5.334 8 5.334 6.137 0 3.197-5.334 9.333-5.334 1.56 0 8.555 3.446 12 0 0.806-0.805-1.141-9.237 4-6.666 5.986 2.992 0.387 7.627 2.667 10.666 3.396 4.528 9.569-2.548 12-1.333 1.257 0.629 0.889 2.667 1.333 4 1.334 0.889 2.48 2.16 4 2.667 2.53 0.843 5.615-1.193 8 0 4.448 2.224-2.573 12 4 12 1.833 0 3.649-0.612 5.334-1.334 1.473-0.631 2.397-2.666 4-2.666 0.994 0-0.965 1.744-1.334 2.666-1.044 2.61-1.777 5.334-2.666 8-1.125 3.373-3.319 5.669 2.666 6.667 3.808 0.635 8.722-6.426 12-5.333 2.435 0.811-0.916 3.165-2.666 6.666-2.741 5.482-0.399 2.39-1.334 8-0.231 1.387-1.102 2.614-1.333 4-0.219 1.316 0 2.667 0 4 0 4.186-1.109 4.964 4 6.667 1.265 0.422 2.807 0.596 4 0 1.687-0.843 2.114-4 4-4 1.405 0-0.811 2.695-1.333 4-1.018 2.543-4.982 6.597-1.334 9.333 1.067 0.8 2.667 0 4 0 3.706 0 8.727-0.702 12-2.666 3.795-2.277 1.206-2.968 5.334-4 4.368-1.092 2.628 3.192 6.666 4 4.115 0.823 12.645-2.389 14.667 2.666 0.948 2.371-1.421 5.934 1.333 8 1.394 1.046 10.607-1.045 12 0 4.088 3.066-0.879 4.682 1.334 8 0.493 0.74 1.777 0 2.666 0 5.406 0 3.579-1.265 5.334 4 0.912 2.737 1.071 5.203 4 6.667 1.297 0.648 8.966 0 10.666 0 4.532 0 15.916 0.681 20 0 1.387-0.231 2.667-1.778 4-1.333 0.477 0.159-0.801 9.865 0 10.666 0.943 0.943 3.058-0.942 4 0 5.488 5.488-7.049 3.492 4 5.334 2.004 0.334 11.098-0.602 12 0 3.45 2.299-1.197 3.706 4 2.666 1.379-0.275 2.622-1.609 4-1.333 4.731 0.946 1.913 8.957 2.667 9.333 3.973 1.987 8.857-14.984 13.333-12 2.219 1.48-1.6 5.867 0 8 4.584 6.112 9.203-6.666 12-6.666 0.889 0 0 1.777 0 2.666 0 1.334 0.22 2.685 0 4-0.231 1.387-1.962 2.743-1.333 4 0.444 0.889 1.778-0.889 2.667-1.333 1.593-0.797 5.019-2.667 6.666-2.667 7.824 0 1.743 4.238 4 8 4.489 7.482 2.914-0.724 8 2.667 1.798 1.198-2.977 8.09-2.666 9.333 0.863 3.453 6.052-0.461 6.666 0 3.144 2.358 1.302 5.831 0 8-0.083 0.14-5.109 6.891-4 8 2.191 2.191 17.082-3.279 20-1.333 0.74 0.493 0.216 1.804 0 2.667-0.811 3.244-4.552 9.356-6.666 12-0.786 0.981-2.667 1.409-2.667 2.666 0 1.833 3.694-0.513 5.333-1.333 11.332-5.666 1.019-1.503 8-2.667 1.808-0.301 3.526-1.032 5.334-1.333 6.915-1.153-0.64 6.774 0 9.333 0.757 3.031 10.344-1.288 12 5.334 1.096 4.384-1.136 7.802-4 10.666-0.889 0.889-2.667 1.41-2.667 2.667 0 0.994 1.778-0.889 2.667-1.333 1.328-0.665 9.552-4.896 10.666-2.667 0.654 1.307-9.506 7.074-8 9.333 0.986 1.48 3.58-0.292 5.334 0 0.98 0.164 1.692 1.139 2.666 1.334 1.308 0.261 2.685-0.22 4 0 1.387 0.231 2.649 0.947 4 1.333 3.365 0.961 8.455 0.942 9.334 5.333 0.261 1.308 0.495 2.762 0 4-0.379 0.948-6.971 7.228-8 8-0.795 0.597-2.667 0.34-2.667 1.334 0 0.889 1.778 0 2.667 0 7.135 0-3.02 0.281 6.666-1.334 3.366-0.561 10.052 0.753 12 4 0.686 1.144 0 2.667 0 4 0 1.334 0.495 2.762 0 4-0.933 2.335-5.333 2.82-5.333 5.334 0 2.925 11.481-1.531 5.333 6.666-0.754 1.006-1.912 1.661-2.666 2.667-0.597 0.795-0.631 1.964-1.334 2.667-1.327 1.327-5.333 1.787-5.333 2.666 0 2.64 13.929 8.548 16 12 0.723 1.206 1.609 2.622 1.333 4-0.365 1.826-8.179 5.154-5.333 8 0.629 0.629 1.804-0.215 2.667 0 0.964 0.241 1.744 0.965 2.666 1.334 1.879 0.751 5.971 1.215 6.667 4 0.241 0.964-1.138 1.692-1.333 2.666-0.77 3.849 0.645 8.127 0 12-0.888 5.324-3.83 6.884-6.667 10.667-0.596 0.795-0.631 1.964-1.333 2.667-1.165 1.165-5.626 2.146-6.667 2.666-1.433 0.717-2.48 2.16-4 2.667-1.265 0.422-2.685-0.219-4 0-1.386 0.231-2.614 1.102-4 1.333-6.486 1.081-13.513-1.081-20 0-1.386 0.231-2.614 1.103-4 1.334-3.894 0.649-8.09-0.559-12 0-1.814 0.259-3.526 1.032-5.333 1.333-4.598 0.766-10.002 0-14.667 0-3.57 0-8.431 0.714-12 0-2.756-0.551-5.227-2.205-8-2.667-11.661-1.943 6.477 3.565-10.667-1.333-0.955-0.273-1.702-1.092-2.666-1.333-0.863-0.216-1.795 0.174-2.667 0-1.378-0.276-2.614-1.103-4-1.334-6.486-1.081-13.513 1.081-20 0-1.386-0.231-2.609-1.134-4-1.333-4.852-0.693-19.549 0-25.333 0-3.792 0-8.31 0.615-12 0-0.981-0.163-1.687-1.17-2.667-1.333-5.945-0.991-15.56 1.154-21.333 0-1.378-0.276-2.614-1.103-4-1.334-4.322-0.72-8.997 0.62-13.334 0-1.391-0.198-2.608-1.134-4-1.333-1.76-0.251-3.573 0.251-5.333 0-1.391-0.199-2.614-1.102-4-1.333-1.315-0.22-2.68 0.188-4 0-1.814-0.259-3.519-1.075-5.333-1.334-5.72-0.817-13.139 1.106-18.667 0-1.378-0.275-2.605-1.159-4-1.333-3.528-0.441-7.159 0.585-10.667 0-1.386-0.231-2.613-1.102-4-1.333-3.892-0.649-8.108 0.648-12 0-1.386-0.231-2.613-1.103-4-1.334-1.315-0.219-2.666 0-4 0-1.333-0.444-2.621-1.057-4-1.333-2.179-0.436-4.461 0.276-6.666 0-2.249-0.281-4.412-1.108-6.667-1.333-7.315-0.732-21.103 0-29.333 0h-57.334c-4.932 0-14.364-0.717-18.666 0-1.387 0.231-2.606 1.159-4 1.333-2.205 0.276-4.445 0-6.667 0-2.222 0.444-4.423 1.013-6.667 1.333-6.097 0.871-12.542-0.68-18.666 0-2.253 0.251-4.415 1.083-6.667 1.334-6.507 0.723-14.654 0-21.333 0-5.965 0-12.724 0.743-18.667 0-2.249-0.281-4.423-1.013-6.667-1.334-3.079-0.44-6.241 0.344-9.333 0-3.643-0.404-7.052-2.064-10.667-2.666-0.876-0.146-1.786 0.125-2.666 0-4.487-0.641-8.847-2.026-13.334-2.667-0.88-0.126-1.789 0.146-2.666 0-4.948-0.825-9.639-2.108-14.667-2.667-1.767-0.196-3.566 0.197-5.333 0-4.505-0.5-8.937-1.567-13.334-2.666-1.363-0.341-2.621-1.058-4-1.334-5.355-1.071-16.59 0.76-22.666 0-2.249-0.281-4.415-1.083-6.667-1.333-5.593-0.621-11.694 0-17.333 0-4.445 0-11.876-0.687-16 0-4.108 0.685-7.892 3.315-12 4-1.315 0.219-2.685-0.219-4 0-1.387 0.231-2.649 0.947-4 1.333-1.762 0.504-3.595 0.754-5.334 1.334-0.942 0.314-1.692 1.138-2.666 1.333-1.308 0.262-2.685-0.219-4 0-1.387 0.231-2.614 1.102-4 1.333-4.136 0.69-22.43 0-28 0-1.334 0-2.685-0.219-4 0-2.773 0.462-5.334 1.778-8 2.667" fill="#7cb237"/>
 <path d="m515.63 742.5c-1.154-0.889-2.309-1.778-3.463-2.667-0.445-0.889-0.631-1.964-1.334-2.666-2.288-2.288-3.78-0.853-6.666-1.334-6.919-1.153-3.581-2.806-12 0-1.334 0.445-2.795 0.611-4 1.334-1.719 1.031-3.645 5.208-6.667 4-1.488-0.595-1.385-3.039-2.667-4-0.711-0.534-1.777 0-2.666 0-9.632 0-8.796 4.132-16 5.333-1.316 0.219-2.667 0-4 0-1.334 0-2.735 0.422-4 0-1.521-0.507-2.398-2.667-4-2.667-5.617 0-2.088 5.183-8 4-1.233-0.246-1.685-1.881-2.667-2.666-3.244-2.595-3.95-3.342-8-2.667-2.773 0.462-5.217 3.064-8 2.667-1.968-0.281-3.366-2.386-5.333-2.667-2.783-0.398-5.486 3.924-8 2.667s-0.418-6.314-2.667-8c-2.449-1.837-11.968 3.122-13.333 2.666-0.844-0.281 0-1.777 0-2.666-1.334 0-2.685-0.22-4 0-1.387 0.231-3.007 2.327-4 1.333-0.994-0.994 2.176-2.876 1.333-4-2.821-3.761-10.349 0.339-13.333 1.333-1.334 0.445-3.007 2.327-4 1.334-0.994-0.994 1.855-2.695 1.333-4-2.732-6.83-4.618-0.206-8-1.334-2.551-0.85 4.976-8.071-1.333-9.333-1.555-0.311-10.732 5.203-12 2.667-0.563-1.125 2.666-1.41 2.666-2.667 0-0.646-4.512-3.965-5.333-5.333-7.88-13.133 5.213 5.132-2.667-8-2.48-4.135-10.132-3.207-9.333-8 0.31-1.86 4-2.115 4-4 0-6.892-8.251 1.836-4-6.667 0.843-1.687 4-2.114 4-4 0-2.667-7.157 2.53-8 0-0.507-1.52 3.055-2.445 2.667-4-0.341-1.364-2.903-0.455-4-1.333-5.795-0.765-0.679-6.013-2.667-8-0.703-0.703-0.34 2.666-1.333 2.666-0.889 0 0.533-1.955 0-2.666-0.962-1.282-2.42-2.404-4-2.667-7.964-1.327-0.435 3.775-6.667 5.333-0.143 0.036-7.31-8-9.333-8-1.603 0-2.999 1.416-4 2.667-0.878 1.097 0.072 4-1.334 4-2.29 0-0.619-14.419-6.666-12-1.846 0.738-1.681 3.608-2.667 5.333-0.795 1.392-1.95 2.567-2.667 4-0.628 1.257-0.339 3.007-1.333 4-0.935 0.935-6.703 2.112-8 1.334-1.053-0.632-2.576-5.885-5.333-5.334-1.572 0.315-2.867 1.534-4 2.667s-1.065 4-2.667 4c-1.405 0-0.889-2.667-1.333-4-0.445-1.333-1.103-2.614-1.334-4-0.219-1.315 0.74-2.891 0-4-2.078-3.118-8.057 6.203-10.666 5.333-1.852-0.617-1.577-9.206-1.334-10.666 0.231-1.387 1.675-2.637 1.334-4-0.768-3.071-6.188-0.08-6.667 0-1.315 0.219-2.667 0-4 0s-3.26 1.109-4 0c-0.78-1.17 1.609-2.622 1.333-4-0.708-3.544-7.152-4.025-9.333-5.334-1.487-0.892-4.699-4.569-4-6.666 0.395-1.185 8.286 2.304 0-2.667-1.586-0.952-7.706-1.177-6.667-5.333 0.341-1.364 2.743-0.705 4-1.334 1.434-0.716 2.567-1.95 4-2.666 1.257-0.629 3.372-0.077 4-1.334 0.445-0.889-1.777-0.889-2.666-1.333-1.356-0.678-6.265-2.994-6.667-4-1.044-2.61 3.218-5.244 2.667-8-0.755-3.771-10.974-3.08-9.334-8 0.524-1.571 10.914 1.925 12-1.333 0.398-1.193-2.02-1.589-2.666-2.667-0.723-1.205-1.103-2.614-1.334-4-0.907-5.444 3.127-7.588 5.334-12 0.737-1.475 3.247-11.498 4-12 0.827-0.551 1.692 1.138 2.666 1.333 1.308 0.262 2.667 0 4 0 1.334 0 2.762 0.495 4 0 1.168-0.467 1.543-2.104 2.667-2.666 0.795-0.398 1.804 0.215 2.667 0 0.964-0.241 1.744-0.965 2.666-1.334 1.305-0.522 3.556 0 4-1.333 1.181-3.541-5.871-2.667-10.666-2.667-0.889 0-2.269 0.795-2.667 0-0.655-1.31 6.667-9.251 6.667-9.333 0-5.506-10.507-1.582-12-1.333-8.145 1.357 4.615-2.428-6.667 1.333-1.333 0.444-2.743 1.962-4 1.333-0.889-0.444 0.822-1.814 1.333-2.666 0.825-1.374 1.534-2.867 2.667-4 0.748-0.749 5.813-2.082 5.333-4-1.198-4.792-17.084-1.92-17.333-2.667-1.632-4.895 9.711-7.623 8-9.333-1.257-1.257-3.556 0-5.333 0-1.748 0-14.137 0.397-14.667 0-1.124-0.844-1.333-2.595-1.333-4 0-5.276 4.412-4.873 8-6.667 0.889-0.444 2.666-0.34 2.666-1.333 0-0.889-1.804 0.215-2.666 0-4.125-1.032-8.261-4.358-1.334-6.667 3.717-1.239 7.995 2.686 9.334-2.667 0.666-2.664-4.471-13.765-2.667-14.666 1.124-0.563 1.661 1.912 2.667 2.666 0.809 0.607 6.129 2.936 6.666 2.667 2.735-1.368 0.821-6.632 0-8-0.646-1.078-2.666-1.41-2.666-2.667 0-0.993 1.964-0.63 2.666-1.333 1.843-1.843 3.567-5.397 4-8 0.22-1.315-0.942-3.057 0-4 0.462-0.462 11.15 0.541 9.334-4-0.635-1.586-6.254-5.968-8-6.667-0.826-0.33-1.795 0.175-2.667 0-2.963-0.592-6.815-1.185-2.667-5.333 0.994-0.994 4 0.072 4-1.333 0-1.334-2.666 0-4 0-3.08 0-8.172 1.16-10.666-1.334-0.703-0.702-0.737-1.871-1.334-2.666-0.754-1.006-2.02-1.589-2.666-2.667-0.723-1.205-0.889-2.667-1.334-4-0.444-1.333-1.102-2.614-1.333-4-0.219-1.315 0.8-2.933 0-4-2.196-2.928-10.712-0.045-12-1.333-2.644-2.644 3.899-2.466 5.333-5.334 0.398-0.795-1.777 0-2.666 0-2.286 0-4.649 0.281-6.667-1.333-1.348-1.079-4-6.068-4-8 0-1.405 1.609-2.622 1.333-4-0.262-1.309-3.999-3.733-5.333-4-2.595-0.519-5.698 0.969-8-1.333-1.764-1.765 2.363-8.848 2.667-10.667 0.877-5.265-0.315-3.297-2.667-8-0.629-1.257-0.889-2.667-1.333-4-0.445-1.333-1.334-2.595-1.334-4 0-0.994 0.737 1.872 1.334 2.667 2.414 3.219 3.386 2.709 6.666 5.333 0.982 0.785 1.41 2.667 2.667 2.667 0.994 0 1.138-1.692 1.333-2.667 1.18-5.899-5.333-16.049-5.333-20 0-0.994 0.391 2.981 1.333 2.667 1.521-0.507 1.666-2.749 2.667-4 0.785-0.982 2.02-1.589 2.667-2.667 0.723-1.205 0.076-3.371 1.333-4 0.889-0.444 0.889 1.778 1.333 2.667 0.445 0.889 0.965 1.744 1.334 2.666 0.522 1.305 0.339 3.007 1.333 4 0.629 0.629 1.778 0 2.667 0s1.841 0.33 2.666 0c2.883-1.153 4.251-4.541 8-2.666 0.889 0.444 0.822 1.814 1.334 2.666 1.525 2.542 5.31 9.322 8 10.667 4.153 2.077 6.757-6.621 14.666-2.667 1.434 0.717 2.48 2.16 4 2.667 2.53 0.843 5.782-1.479 8 0 0.74 0.493 0 1.778 0 2.667 0 2.71-0.281 3.976 1.334 6.666 3.331 5.553 3.275 1.45 5.333-2.666 1.93-3.86 1.333-1.673 1.333-6.667v2.667c0 2.37-0.281 4.514 1.334 6.666 1.659 2.213 9.806 3.294 12 2.667 3.081-0.88 4.795-5.333 8-5.333 0.993 0 1.138 1.692 1.333 2.666 0.646 3.23 0 8.602 0 12 0 1.334-0.943 3.058 0 4 3.925 3.925 7.621-5.333 8-5.333 3.002 0 4.556 8.278 6.667 9.333 2.489 1.245 8.716-9.086 9.333-9.333 6.459-2.583 2.796 7.43 5.333 9.333 5.475 4.106 3.629-4.874 8-4 4.784 0.957 3.31 2.636 5.334 5.334 0.664 0.886 5.617 5.683 6.666 5.333 1.265-0.422 0-2.667 0-4s0.22-2.685 0-4c-0.231-1.386-1.962-2.743-1.333-4 2.359-0.786 5.54-1.184 6.667-4 2.74-6.851-8.177-6.314-6.667-9.333 0.596-1.193 4 1.333 4 0 0-0.869-8.196-4.391-9.333-6.667-0.445-0.889 1.724-1.019 2.666-1.333 4.276-1.425 5.611 0.224 6.667-4 0.216-0.863 0.33-1.842 0-2.667-0.595-1.488-1.534-2.867-2.667-4-0.702-0.703-1.871-0.737-2.666-1.333-0.982-0.737-5.562-5.526-5.334-6.667 0.315-1.571 2.867-1.534 4-2.667 0.703-0.702 1.093-1.702 1.334-2.666 0.545-2.18-0.522-10.667 0-10.667 0.993 0 0.822 1.814 1.333 2.667 0.385 0.641 6.009 10.666 6.667 10.666 1.333 0 0-2.666 0-4 0-6.194-0.671-7.344-2.667-13.333-0.444-1.333-1.333-2.595-1.333-4 0-0.994 0.737 1.872 1.333 2.667 1.542 2.056 2.987 4.266 5.333 1.333 1.242-1.552 1.778-3.556 2.667-5.333 0.444-0.889 0.538-2.071 1.333-2.667 1.125-0.843 2.876-0.49 4-1.333 1.915-1.436 0.526-5.597 2.667-6.667 5.424-2.712 5.048 7.715 6.667 9.333 0.628 0.629 1.777 0 2.666 0 1.334 0 2.685 0.22 4 0 1.387-0.231 2.637-1.674 4-1.333 1.929 0.482 0.739 4.851 2.667 5.333 4.97 1.243 9.141-8.57 10.667-9.333 0.795-0.398 0 1.778 0 2.667 0 7.135-0.281-3.02 1.333 6.666 0.219 1.316-0.8 2.934 0 4 3.811 5.082 7.93-3.345 12-2.666 8.176 1.362-0.176 2.637 8 4 2.63 0.438 5.615-1.193 8 0 0.889 0.444 0.369 2.425 1.333 2.666 1.735 0.434 7.147-3.146 8-4 0.703-0.702 0.34-2.666 1.334-2.666 7.465 0-2.78 6.361 6.666 4 1.983-0.496 1.334-12.596 1.334-14.667v2.667c0 1.519-0.281 5.859 1.333 6.666 0.889 0.445 0.889-1.777 1.333-2.666 0.445-0.889 1.139-1.692 1.334-2.667 0.261-1.307-0.189-2.68 0-4 0.259-1.814 1.032-3.526 1.333-5.333 0.146-0.877-0.889-2.667 0-2.667 0.994 0 0.34 2.667 1.333 2.667 0.994 0 1.019-1.724 1.334-2.667 0.579-1.738 0.83-3.571 1.333-5.333 0.386-1.352 1.058-2.622 1.333-4 0.186-0.926-0.277-6.389 0-6.667 1.406-1.405 0.739 4.851 2.667 5.333 6.438 1.61 4.525-9.333 6.667-9.333 0.157 0-1.308 9.307 2.666 5.333 0.629-0.628-0.215-1.804 0-2.666 0.241-0.964 1.139-1.692 1.334-2.667 0.697-3.487-0.503-7.147 0-10.667 0.14-0.983 1.092-1.702 1.333-2.666 0.247-0.988-0.37-6.297 0-6.667 0.703-0.703 0.889 1.778 1.333 2.667 0.445 0.889 0.965 1.744 1.334 2.666 1.989 4.973 0.259 6.089 5.333 0 1.026-1.231 1.666-2.748 2.667-4 0.785-0.981 1.912-1.661 2.666-2.666 0.597-0.795 0.965-1.744 1.334-2.667 0.522-1.305 0.076-3.371 1.333-4 0.889-0.444 1.17 1.686 1.333 2.667 0.293 1.753 0 3.555 0 5.333 0 8.088 0.114 2.325-2.666 10.667-0.281 0.843 0.174 1.795 0 2.666-1.755 8.775-1.334-0.735-1.334 8 0 1.334-0.8 2.934 0 4 1.122 1.496 6.525 1.58 8 1.334 4.613-0.769 4.277-3.676 5.334 2.666 0.219 1.316-0.943 3.058 0 4 0.702 0.703 1.839-0.782 2.666-1.333 1.849-1.233 3.762-2.429 5.334-4 1.133-1.133 1.064-4 2.666-4 1.963 0 0.253 10.515 6.667 6.667 3.017-1.81 4.07-9.404 5.333-10.667 1.257-1.257-1.257 4.076 0 5.333 0.994 0.994 2.637 1.675 4 1.334 0.964-0.241 0.965-1.744 1.334-2.667 2.568-6.42 0.138-1.747 2.666-9.333 0.315-0.943 1.019-1.724 1.334-2.667 0.579-1.738-0.133-4.234 1.333-5.333 1.124-0.844 2.667 0.889 4 1.333 1.778-1.333 3.646-2.554 5.333-4 4.73-4.054 3.869-3.738 6.667-9.333 0.444-0.889 1.138-1.692 1.333-2.667 0.262-1.307-0.942-3.057 0-4 0.703-0.703 0.34 2.667 1.334 2.667 0.889 0-0.146-1.79 0-2.667 0.301-1.808 0.83-3.571 1.333-5.333 1.139-3.986 3.188-7.938 4-12 0.174-0.872-0.889-2.667 0-2.667 1.988 0 1.013 4.231 2.667 5.333 0.739 0.493 2.666 0.889 2.666 0s-1.927 0.493-2.666 0c-0.827-0.551-0.737-1.871-1.334-2.666-0.754-1.006-1.881-1.685-2.666-2.667-1.001-1.251-3.056-2.445-2.667-4 0.828-3.311 10.34-0.088 12-1.333 3.137-2.353-0.211-8.737 1.333-10.667 1.55-1.937 9.59-4.256 12-6.667 2.386-2.386 3.647-10.392 2.667-13.333-0.314-0.943-4.907-6.186-4-8 1.227-2.453 11.741-0.816 12-1.333 0.82-1.639-0.754-3.595-1.333-5.334-0.315-0.942-0.445-3.111-1.334-2.666-0.889 0.444 0.737 1.871 1.334 2.666 0.754 1.006 1.409 2.667 2.666 2.667 6.555 0 2.994-2.817 4-5.333 0.595-1.488 2.036-2.527 2.667-4 0.244-0.571 1.609-9.334 4-9.334 1.405 0 1.333 2.595 1.333 4 0 1.406-2.327 3.007-1.333 4 0.889 0.889 1.881-1.685 2.667-2.666 2.002-2.503 3.281-5.538 5.333-8 1.207-1.449 2.793-2.552 4-4 2.363-2.836 3.629-7.038 5.333-5.334 0.943 0.943 0 2.667 0 4 0 1.334 0.22 2.685 0 4-0.231 1.387-2.738 4-1.333 4 1.714 0 10.482-8.769 12-10.666 1.001-1.252 1.666-2.749 2.667-4 6.325-7.906-1.624 4.812 8 0 2.77-1.385 12.013-8.664 14.666-8 2.206 0.551 0.963 6.11 1.334 6.666 0.493 0.74 1.823 0.281 2.666 0 6.997-2.332 8.081-5.124 17.334-6.666 0.876-0.146 2.666-0.889 2.666 0 0 9.578-8.726-11.632-5.333 5.333 1.046 5.228 14.637 1.318 17.333 2.667 5.834 2.917-0.863 7.451 6.667 9.333 4.034 1.009 9.144-0.524 13.333 0 2.249 0.281 4.418 1.052 6.667 1.333 1.323 0.166 3.057-0.942 4 0 4.975 4.975-8 6.914-8 9.334 0 2.191 7.014 3.26 8 4 2.994 2.245 1.006 3.532-1.333 4-1.308 0.261-2.667 0-4 0-7.689 0-5.844-0.922-12-4-1.257-0.629-2.795-0.611-4-1.334-1.078-0.646-3.924-2.666-2.667-2.666 2.997 0 6.993 6.792 8 8 0.805 0.965 2.972 1.447 2.667 2.666-0.989 3.953-12.617 2.667-16 2.667-1.334 0-3.261-1.109-4 0-0.78 1.169 1.962 2.743 1.333 4s-2.667 0.889-4 1.333c-5.751 1.917-11.591 3.419-17.333 5.334-2.603 0.867-7.447 1.887-5.334 4 0.943 0.942 2.667 0 4 0h17.334c0.889 0 2.038-0.629 2.666 0 2.605 2.604-2.116 3.45-2.666 4-0.703 0.702-0.507 2.115-1.334 2.666-0.739 0.493-2.385-0.843-2.666 0-1.66 4.978 3.437 3.911 5.333 5.334 2.375 1.781 1.615 10.666 0 10.666-1.832 0 0.754-3.595 1.333-5.333 2.898-11.59-0.203-0.824 2.667-8 1.016-2.54 0.762-7.238 5.333-2.667 2.749 2.749 0.379 10.667 6.667 10.667 5.238 0 7.822-10.607 12-12 1.333-0.444 2.614 1.102 4 1.333 1.315 0.22 2.667 0 4 0s2.762 0.496 4 0c1.167-0.467 1.912-1.661 2.667-2.666 0.596-0.795 0.369-2.426 1.333-2.667 1.364-0.341 2.622 1.609 4 1.333 2.552-0.51 9.022-11.277 10.667-13.333 0.785-0.982 1.474-3.064 2.666-2.667 1.334 0.445 0.889 2.667 1.334 4 0.444 1.334 1.102 2.614 1.333 4 0.219 1.316-0.943 3.058 0 4 0.703 0.703 0.964-1.744 1.333-2.666 6.703-16.757-4.99 9.981 4-8 0.629-1.257 0.49-2.876 1.334-4 0.596-0.795 1.777-1.778 2.666-1.334 3.556 1.778 1.334 6.667 6.667 6.667 2.137 0 10.556-7.89 12-9.333 2.68-2.681-4.637 2.843-4 6.666 0.999 5.993 6.134 4.108 9.333 6.667 0.448 0.358 3.668 5.338 4 6.667 0.501 2.003 0.328 8.7 0 10.666-0.231 1.387-1.855 2.695-1.333 4 1.098 2.746 6.02 1.294 4 5.334-0.562 1.124-1.661 1.912-2.667 2.666-0.795 0.597-2.666 0.34-2.666 1.334 0 2.363 9.985 0.028 6.666 6.666-0.444 0.889-1.777 0.889-2.666 1.334-1.778 0.889-3.556 1.777-5.334 2.666-0.889 0.445-1.692 1.139-2.666 1.334-1.308 0.261-2.762-0.496-4 0-1.167 0.467-2.667 1.409-2.667 2.666 0 5.885 8.188 4.761 9.333 5.334 1.125 0.562 3.229 1.542 2.667 2.666-1.227 2.454-10.831 3.832-13.333 5.334-2.144 1.286-5.46 6.792-8 9.333l-2.667 2.667c-0.889 0.889-2.972 1.447-2.667 2.666 1.028 4.11 9.372 2.667 12 2.667 0.889 0-1.795-0.174-2.666 0-0.762 0.152-11.991 3.982-12 4-0.445 0.889 1.744 0.964 2.666 1.333 1.305 0.522 2.614 1.103 4 1.334 1.636 0.272 7.848-1.105 5.334 2.666-0.893 1.339-14.358 3.691-16 5.334-0.629 0.628 1.777 0 2.666 0 1.334 0 2.808-0.597 4 0 3.435 1.717-0.348 5.681-1.333 6.666-1.778 1.778-6.458 3.085-5.333 5.334 0.226 0.453 10.666-0.397 10.666 0 0 0.993-1.777 0.889-2.666 1.333-1.778 0.889-3.448 2.038-5.334 2.667-6.099 2.033 1.382-3.496-6.666 1.333-1.078 0.647-3.556 1.778-2.667 2.667 2.066 2.065 17.262-3.645 16 2.666-0.775 3.875-5.813 6.418-8 9.334-0.596 0.795-0.822 1.814-1.333 2.666-0.825 1.374-3.056 2.446-2.667 4 0.341 1.364 3.157 0.209 4 1.334 0.762 1.015-0.701 9.965 0 10.666 0.994 0.994 2.637 1.675 4 1.334 0.964-0.241 2.222-2.223 1.333-2.667-1.639-0.82-1.333 3.501-1.333 5.333 0 1.334-0.943 3.058 0 4 0.943 0.943 3.057-0.942 4 0 2.127 2.128-3.396 10.906-2.667 12 0.74 1.11 2.959-0.833 4 0 5.045 4.036 0.203 8.203 4 12 4.536 4.536 13.957-1.844 16-1.333 2.582 0.645 0.573 4.192 1.334 5.333 2.172 3.26 6.992-0.593 10.666 4 1.498 1.872 0.549 5.977 4 6.667 1.666 0.333 7.226-3.032 8-4 0.878-1.097 0.077-3.371 1.334-4 0.235-0.118 1.116 3.891 4 5.333 0.359 0.18 10.519 0.074 10.666 0 0.889-0.444 1.093-1.702 1.334-2.666 0.215-0.863 0.889-2.667 0-2.667s0 1.778 0 2.667c0 2.059-0.629 4.674 2.666 5.333 1.378 0.276 2.876-0.49 4-1.333 2.978-2.234 0.222-9.555 1.334-10.667 2.604-2.604 3.45 2.117 4 2.667 1.161 1.161 5.292 2.364 6.666 1.333 1.125-0.843 1.103-2.614 1.334-4 0.511-3.069-0.608-8.127-1.334-10.667-0.749-2.623-5.398-7.869-4-10.666 0.563-1.125 1.589 2.02 2.667 2.666 1.205 0.723 2.637 1.675 4 1.334 2.758-0.69 0.221-5.926 1.333-6.667 4.18-2.786 7.486 9.848 12 5.333 3.063-3.062-3.172-6.802-2.666-9.333 2.885-14.429 1.497 3.754 6.666-4 0.788-1.181-4.832-8.993-5.333-12-0.915-5.487 0.351-3.621 4-8 1.026-1.231 1.534-2.867 2.667-4 0.702-0.703 3.369-0.631 2.666-1.333-0.764-0.765-9.504 0.775-10.666 0-0.74-0.493-0.493-1.927 0-2.667 1.98-2.97 8.225-0.902 9.333-5.333 0.434-1.738-3.947-5.004-5.333-6.667-1.026-1.231-1.95-2.567-2.667-4-0.83-1.661-4-10.333-4-12 0-0.994 1.092 1.703 1.333 2.667 1.162 4.647-2.118 0.914 1.334 6.666 3.56 5.934 2.948 1.014 4-2.666 0.386-1.352 1.057-2.622 1.333-4 0.508-2.538-1.083-4.25 1.333-6.667 3.601-3.601 9.697 1.293 14.667-5.333 1.955-2.607 1.394-10.667 1.333-10.667-3.899 0-2.256 5.027-2.666 6.667-0.241 0.964-1.139 1.692-1.334 2.666-0.261 1.308-1.265 3.579 0 4 4.408 1.469 3.544-4.14 5.334-5.333 0.739-0.493 2.038-0.629 2.666 0 0.825 0.824-0.819 12.514 0 13.333 1.38 1.38 10.364-1.439 12-2.666 1.006-0.755 1.41-2.667 2.667-2.667 1.983 0 1.108 4.769 1.333 5.333 0.595 1.488 1.534 2.867 2.667 4 1.218 1.218 7.852 4.247 9.333 4 1.581-0.263 3.039-1.384 4-2.666 0.534-0.711 0-1.778 0-2.667v-4 2.667c0 2.438-0.843 4.968 4 4 4.34-0.868 4.332-12.332 6.667-14.667 1.257-1.257-1.778 5.333 0 5.333 3.061 0 8.294-17.333 12-17.333 4.581 0-3.929 10.28 2.667 5.333 1.282-0.961 1.665-2.748 2.666-4 1.571-1.963 3.556-3.555 5.334-5.333 0.889-0.889 1.542-3.229 2.666-2.667 1.193 0.597-0.942 3.058 0 4 0.943 0.943 2.934-0.8 4 0 2.533 1.9 0.596 5.788 1.334 8 1.432 4.298 4.309 3.073 2.666 8-0.473 1.419-7.106 8.454-6.666 9.334 0.397 0.795 1.777 0 2.666 0h4c9.086 0-0.552-0.943 6.667 2.666 3.18 1.591 12.112-3.325 13.333 4 0.264 1.581-2.666 2.398-2.666 4 0 1.215 6.142 4.788 4 8-0.552 0.827-1.778 0.889-2.667 1.334-0.889 0.889-2.02 1.588-2.667 2.666-0.723 1.205-0.455 2.903-1.333 4-1.001 1.252-2.749 1.666-4 2.667-0.982 0.785-1.661 1.912-2.667 2.667-2.361 1.771-7.851 1.927-6.666 6.666 0.241 0.964 1.777 0.889 2.666 1.334 0.445 0.889 1.139 1.692 1.334 2.666 0.247 1.239-0.28 7.628 0 8 3.065 4.088 4.681-0.879 8 1.334 7.498 4.998-11.981 0.541 0 5.333 0.92 0.368 10.829 0.234 12 0 9.648-1.93-6.094-1.333 6.666-1.333h-2.666c-0.889 0-2.667-0.889-2.667 0s1.778 0 2.667 0c2.666 0 5.385 0.523 8 0 0.974-0.195 1.692-1.139 2.666-1.334 3.475-0.695 12.082 0 16 0 10.172 0 1.334-0.596 1.334 1.334 0 0.889 1.79 0.146 2.666 0 5.082-0.847 10.888-2.667 16-2.667 1.334 0 3.404-1.193 4 0 1.426 2.852-5.333 2.514-5.333 4 0 0.889 1.795-0.174 2.667 0 1.378 0.276 2.622 1.058 4 1.333 2.179 0.436 4.444 0 6.666 0 10.943 0-1.826 3.087 8 8 1.193 0.597 2.685-0.219 4 0 1.387 0.231 2.614 1.103 4 1.334 1.316 0.219 2.762-0.496 4 0 6.147 2.458-0.024 2.63 2.667 6.666 0.493 0.74 1.956-0.533 2.667 0 1.466 1.1 7.383 9.951 5.333 12-1.296 1.296-3.595 0.754-5.333 1.334-0.943 0.314-1.693 1.138-2.667 1.333-3.323 0.664-4.931-1.122-8 1.333-1.251 1.001-1.666 2.749-2.667 4-1.57 1.964-3.37 3.763-5.333 5.334-1.966 1.573-6.303 2.789-5.333 6.666 0.241 0.964 1.814 0.822 2.666 1.334 1.374 0.824 2.459 2.226 4 2.666 1.71 0.489 4.539-1.59 5.334 0 0.457 0.914-10.905 5.207-12 6.667-0.504 0.671 0.326 8.355 0 9.333-0.507 1.521-2.16 2.48-2.667 4-0.422 1.265 0.219 2.685 0 4-0.231 1.387-1.778 2.667-1.333 4 0.281 0.844 1.777 0 2.666 0h5.334c0.889 0.445 1.682 1.193 2.666 1.334 2.2 0.314 4.445 0 6.667 0h2.667c0.889 0 2.269-0.795 2.666 0 0.445 0.889-1.647 1.724-1.333 2.666 0.663 1.99 4.176 1.102 5.333 1.334 1.379 0.275 2.614 1.102 4 1.333 3.892 0.649 8.108-0.649 12 0 1.387 0.231 2.609 1.135 4 1.333 2.64 0.377 5.386-0.523 8 0 1.379 0.276 2.609 1.532 4 1.334 1.205-0.172 11.719-5.521 12-5.334 6.319 4.213-3.226 3.888 4 5.334 1.308 0.261 2.667 0 4 0 1.334 0 2.685 0.219 4 0 1.134-0.189 6.515-2.819 8-1.334 2.44 2.44-12.609 0.343 1.334 2.667 1.707 0.285 9.597-0.713 10.666 0 2.706 1.804 1.144 7.428 0 9.333-0.646 1.078-2.104 1.543-2.666 2.667-0.398 0.795 0.493 1.927 0 2.667-0.552 0.827-1.815 0.822-2.667 1.333-1.374 0.824-3.038 1.385-4 2.667-0.38 0.507 0.471 7.66-1.333 10.666-0.847 1.412-5.734 4.666-5.334 6.667 0.315 1.571 3.284 1.233 4 2.667 0.445 0.889-0.964 1.744-1.333 2.666-0.522 1.305-1.102 2.614-1.333 4-0.101 0.607-0.174 10.234 0 10.667 1.71 4.276 4.284 1.363 6.666 5.333 4.041 6.735-13.333 7.831-13.333 9.334 0 1.405 2.695 0.811 4 1.333 4.824 1.93 0.378 1.333 6.667 1.333 0.889 0 2.666-0.889 2.666 0 0 1.257-1.777 1.778-2.666 2.667l-2.667 2.667c-0.889 0.889-1.661 1.912-2.667 2.666-0.795 0.597-1.964 0.631-2.666 1.334-0.703 0.702-1.334 1.673-1.334 2.666 0 6.591 8.158 5.491 12 9.334 4.86 4.859-4.306 10.666 8 10.666 1.778 0 7.556-1.333 4 4-1.315 1.974-7.306-3.963-1.333 4 0.596 0.795 1.778 0.889 2.667 1.334 0.889 0.444 1.692 1.138 2.666 1.333 1.308 0.261 2.934-0.8 4 0 7.276 5.457-2.632 2.77-1.333 6.667 0.444 1.333 2.614 1.102 4 1.333 4.067 0.678 14.409-1.591 17.333 1.333 5.412 5.412-4.545 6.725-5.333 10.667-0.656 3.278 7.999 2.666 9.333 4 4.223 4.222-2.889 7.778 1.334 12 0.994 0.994 2.695 0.811 4 1.333 0.922 0.369 1.692 1.139 2.666 1.334 1.804 0.36 7.283-1.232 5.334 2.666-0.398 0.795-1.842-0.33-2.667 0-1.488 0.595-2.567 1.95-4 2.667-2.514 1.257-6.012 0.679-8 2.667-1.917 1.917 4.002 7.465 0 10.666-1.431 1.145-3.595 0.754-5.333 1.334-2.134 0.711-4.534 1.955-6.667 2.666-11.334 3.778 1.333-0.088 1.333 1.334 0 0.239-4.353 2.204-6.666 2.666-0.872 0.175-1.795-0.174-2.667 0-1.378 0.276-2.614 1.103-4 1.334-2.63 0.438-5.333 0-8 0h-24c-2.667 0-5.37-0.439-8 0-1.386 0.231-2.614 1.102-4 1.333-2.63 0.438-5.37-0.438-8 0-1.386 0.231-2.614 1.102-4 1.333-3.069 0.512-6.222 0-9.333 0h-50.667c-4.336 0-11.767 0.706-16 0-1.386-0.231-2.614-1.102-4-1.333-4.308-0.718-15.042 0-20 0h-40c-5.388 0-23.799-0.7-28 0-1.386 0.231-2.605 1.159-4 1.333-5.098 0.638-10.946-1.01-16 0-1.378 0.276-2.667 0.889-4 1.334-2.222 0-4.462-0.276-6.667 0-1.394 0.174-2.613 1.102-4 1.333-2.192 0.365-4.487-0.436-6.666 0-2.757 0.551-5.228 2.205-8 2.667-1.315 0.219-2.685-0.22-4 0-1.387 0.231-2.622 1.057-4 1.333-0.872 0.174-1.795-0.174-2.667 0-1.378 0.276-2.614 1.102-4 1.333-1.315 0.22-2.685-0.219-4 0-2.773 0.462-5.273 1.985-8 2.667-2.199 0.55-4.468 0.784-6.667 1.333-4.01 1.003-7.926 3.321-12 4-1.315 0.22-2.684-0.219-4 0-2.772 0.462-5.333 1.778-8 2.667-2.356 0.785-13.189 5.087-14.666 5.333-1.315 0.22-2.667 0-4 0-2.223 0.889-4.345 2.086-6.667 2.667-1.294 0.323-2.685-0.219-4 0-10.963 3.654 2.811-0.469-8 1.333-1.386 0.231-2.609 1.135-4 1.334-1.76 0.251-3.573-0.252-5.333 0-2.783 0.397-5.273 1.985-8 2.666-4.397 1.1-8.976 1.422-13.334 2.667-6.093 1.741 1.345 1.331-6.666 2.667-1.315 0.219-2.685-0.22-4 0-2.773 0.462-5.228 2.204-8 2.666-1.315 0.22-2.685-0.219-4 0-2.773 0.462-5.334 1.778-8 2.667-8.187 2.729-16.009 6.137-24 9.333-7.039 2.816-1.188-0.177-10.667 2.667-2.292 0.688-4.365 2.009-6.667 2.667-0.854 0.244-1.79-0.146-2.666 0-1.808 0.301-3.572 0.83-5.334 1.333-5.403 1.544-10.435 4.22-16 5.333-0.871 0.175-1.786-0.125-2.666 0-1.85 0.265-9.817 1.939-12 2.667-5.358 1.786-10.499 3.958-16 5.333-4.397 1.1-8.847 2.026-13.334 2.667-0.88 0.126-1.795-0.174-2.666 0-5.45 1.09-10.521 4.42-16 5.333-1.315 0.22-2.735-0.421-4 0-9.215 3.072 1.067 2.489-8 4-1.315 0.22-2.68-0.188-4 0-3.441-1.378-5.244 2.116-8 2.667-1.308 0.261-2.685-0.219-4 0-2.773 0.462-5.228 2.205-8 2.667-1.315 0.219-2.685-0.22-4 0-4.108 0.684-7.892 3.315-12 4-10.811 1.802 2.962-2.321-8 1.333" fill="#688e22"/>
 <path d="m523.29 756.91c-2.518 1.283-3.997 2.63-7.119 1.589-1.521-0.507-2.48-2.16-4-2.667-1.265-0.421-2.808 0.597-4 0-5.516-2.757 5.853-5.887 2.666-10.666-0.493-0.74-1.777 0-2.666 0-3.111 0-6.265-0.512-9.334 0-0.98 0.163-1.692 1.138-2.666 1.333-1.308 0.261-2.667 0-4 0-1.334 0-2.934 0.8-4 0-3.942-2.956 1.197-16.135-2.667-20-1.703-1.703-7.633-1.576-9.333-1.333-1.392 0.198-2.614 1.102-4 1.333-1.316 0.219-2.685-0.219-4 0-5.299 0.883-5.529 2.667-12 2.667-1.334 0-3.058 0.942-4 0-1.029-1.029 1.501-13.166-1.334-16-0.628-0.629-1.777 0-2.666 0-1.718 0-15.431 0.341-16 0-6.335-3.801 0.923-8.615-1.334-12-2.172-3.26-6.992 0.593-10.666-4-0.668-0.835-2.617-9.031-2.667-9.334-0.146-0.876 0.174-1.795 0-2.666-0.276-1.378-1.102-2.614-1.333-4-0.22-1.316 0.219-2.685 0-4-0.231-1.387-0.889-2.667-1.334-4-0.444-1.334-0.209-3.157-1.333-4-2.098-1.574-7.064 2.924-5.333-4 0.241-0.964 1.814-0.822 2.666-1.334 1.374-0.824 3.284-1.233 4-2.666 0.398-0.795-2.173 0.739-2.666 0-1.069-1.603 0.705-6.743 1.333-8 0.717-1.434 2.16-2.48 2.667-4 0.421-1.265-0.22-2.685 0-4 0.231-1.387 1.962-2.743 1.333-4-1.533-3.066-6.135-0.091-8-1.334-0.757-0.504 0.876-5.207 0-6.666-3.462-5.77-10.987-1.334-13.333-1.334-0.994 0 1.964-0.63 2.666-1.333 1.251-1.25 4.461-5.608 2.667-8-3.647-4.863-4.966 1.333-8 1.333-4.902 0-1.316-8.653-4-10.666-5.838-4.379-2.279 4.194-8 1.333-1.984-0.992-1.075-9.815-5.333-10.667-2.884-0.576-13.149 6.1-16 8-1.334 0.889-2.48 3.174-4 2.667-1.265-0.422 0.219-2.685 0-4-0.224-1.343-1.083-5.917-4-5.333-3.143 0.628-5.134 3.9-8 5.333-4.482 2.241-8.925 1.225-10.667-4-0.422-1.265 0.422-2.735 0-4-0.507-1.52-2.16-2.48-2.667-4-0.843-2.53 0-5.333 0-8v-4c0-1.333 1.334-4 0-4-1.333 0-1.333 4 0 4 1.886 0 2.552-2.793 4-4 2.304-1.92 4.994-3.499 8-4 4.693-0.782 3.486 1.246 8-1.333 0.669-0.383 5.788-4.891 8-5.334 5.045-1.009 7.702 1.632 12-2.666 1.133-1.133 2.404-2.42 2.667-4 0.231-1.387-1.135-2.609-1.333-4-0.252-1.76 0-3.556 0-5.334 0-6.103 1.452-6.122-4-10.666-1.231-1.026-2.398-2.667-4-2.667-1.603 0-2.446 3.055-4 2.667-3.799-0.95 1.924-10.519-4-9.334-1.498 0.3-5.701 4.92-8 4-3.381-1.352-3.561-8.303-5.334-10.666-3.28-4.374-3.999 2.133-6.666 2.666-5.96 1.192 1.475-10.714-6.667-8-1.789 0.597-2.171 3.543-4 4-0.964 0.241-0.538-2.07-1.333-2.666-1.125-0.844-2.595-1.334-4-1.334-1.406 0-2.876 0.49-4 1.334-0.795 0.596-0.34 2.666-1.334 2.666-0.889 0 0-1.777 0-2.666 0-10.401 0.422 2.529-1.333-8-0.202-1.212 0.747-5.627-1.333-6.667-4.053-2.027-11.689 5.804-16 6.667-4.138 0.827-5.021 0.114-6.667-4-0.33-0.826 0.533-1.956 0-2.667-4.18-5.573-9.039-0.693-12-2.667-0.285-0.19 0.518-10.148 0-10.666-0.943-0.943-2.933 0.8-4 0-0.755-0.567-2.282-7.052-1.333-8 2.873-2.874-0.163 5.252 2.666 6.666 1.257 0.629 2.831-0.553 4-1.333 1.569-1.046 2.667-2.667 4-4 1.334-1.333 2.954-2.431 4-4 0.78-1.169 0-3.556 1.334-4 2.37 2.37 2.724 3.981 6.666 2.667 1.46-0.487 5.733-4.756 8-4 0.844 0.281 0 1.777 0 2.666 1.334 0.889 2.398 2.667 4 2.667 3.7 0 6.757-7.955 12-5.333 2.255 1.127 0.177 5.333 4 5.333 1.603 0 2.749-1.666 4-2.667 0.982-0.785 1.41-2.666 2.667-2.666 2.875 0-0.937 7.711 5.333 6.666 5.123-0.853 8.743-3.037 13.334-5.333 0.889-0.444 1.777-1.778 2.666-1.333 0.701 0.35-0.703 4.558 0 6.666 0.889 2.667 4 5.778 6.667 6.667 1.881 0.627 13.263 0 16 0 1.333 0 2.933-0.8 4 0 6.693 5.02-4.915 3.869 5.333 5.333 1.76 0.252 3.58 0.293 5.334 0 2.217-0.369 3.876-3.426 6.666-1.333 4.719 3.539-3.211 8.789 0 12 0.67 0.67 14.761-0.826 16 0 0.74 0.493-0.215 1.804 0 2.667 0.241 0.964 1.139 1.692 1.334 2.666 0.261 1.308-0.74 2.891 0 4 0.504 0.757 5.207-0.875 6.666 0 4.323 2.594 1.391 4.739 4 8 10.415 6.943-1.107-1.92 5.334 6.667 2.805 3.741 9.517-0.46 10.666 0 6.471 2.588-1.863 8.23 6.667 10.667 4.141 1.183 10.785-2.863 13.333-1.334 6.845 4.107-0.194 3.232 2.667 8 4.396 7.328 6.559-2.72 12 0 6.872 3.436 1.516 8.031 9.333 9.334 1.315 0.219 2.685 0.219 4 0 1.677-0.28 7.598-2.868 8-2.667 2.41 1.205 0.712 6.446 1.334 8 2.591 6.478 13.256 2.59 14.666 4 1.886 1.886-1.372 5.713 0 8 3.616 6.025 7.651 0 12 0 6.988 0 1.548 2.262 6.667 5.333 1.143 0.686 2.667 0 4 0 6.471 0 6.701-1.783 12-2.666 3.892-0.649 8.108 0.648 12 0 1.386-0.231 2.649-0.948 4-1.334 4.284-1.224 6.086-0.752 9.333-4 5.787-5.786-8.83-1.289-10.666-2.666-6.051-4.538 6.454-15.149 6.666-16 0.649-2.594-13.518-0.759-14.666-1.334-5.718-2.859 5.333-9.002 5.333-10.666 0-3.217-11.713 1.231-10.667-4 0.11-0.546 7.224-6.33 6.667-8-0.843-2.53-5.867 1.6-8 0-1.496-1.122-1.579-6.525-1.333-8 0.687-4.123 3.817-4.814-2.667-6.667-2.78-0.794-11.568 2.197-13.333-1.333-2.582-5.163 4.239-6.906 6.666-9.334 0.703-0.702 1.885-1.839 1.334-2.666-4.213-6.319-3.888 3.226-5.334-4-0.524-2.624 1.016-9.968 0-12-0.984-1.969-8.955-2.269-8-8 0.172-1.028 4.325-4.457 2.667-6.667-3.555-4.739-4.072-0.29-5.333-5.333-0.501-2.004-0.328-8.701 0-10.667 0.26-1.56 2.751-6.109 1.333-8-1.757-2.343-9.552-0.873-10.667-5.333-0.509-2.039 9.027-11.586 8-14.667-0.281-0.843-1.795 0.174-2.666 0-1.378-0.276-2.795-0.61-4-1.333-2.53-1.518-3.534-3.87-4-6.667-0.22-1.315 0.8-2.933 0-4-0.844-1.124-2.743-0.705-4-1.333-1.434-0.717-2.999-1.416-4-2.667-3.721-4.651 2.497-10.253 1.333-12-1.89-2.834-12.518 4.777-6.667-4 0.582-0.873 6.692-5.283 5.334-8-2.025-4.049-15.018 1.473-16 0-1.408-2.111 4.256-6.717 4-8-0.761-3.804-6.016-2.336-8-2.667-1.387-0.231-2.667-0.889-4-1.333-1.334-0.444-2.795-0.61-4-1.333-7.545-4.527 6.278-6.397-4-9.334-1.71-0.488-3.556 0-5.334 0-0.889 0-1.927 0.493-2.666 0-0.827-0.551-0.889-1.777-1.334-2.666-0.444-0.889-1.138-1.693-1.333-2.667-0.262-1.307 0.596-2.807 0-4-3.266-6.531-9.134-3.8-12-6.667-3.645-3.645 9.061-6.939 6.667-9.333-0.943-0.943-2.685 0.219-4 0-1.387-0.231-2.795-0.61-4-1.333-6.181-3.709 1.145-6.761-6.667-10.667-4.151-2.076-4.057 2.61-8-1.333-0.629-0.629-0.174-1.795 0-2.667 0.276-1.378 1.102-2.614 1.333-4 0.222-1.333 0.416-10.961 0-12-2.062-5.156-9.299-3.179-10.666-4-1.374-0.824-1.95-2.567-2.667-4-0.629-1.257-1.609-2.622-1.333-4 0.793-3.966 4.396-2.288 6.666-2.667 1.387-0.231 2.637-1.674 4-1.333 2.339 0.585 0.79 4.246 1.334 5.333 1.124 2.249 3.555 3.556 5.333 5.334 3.8 3.799 1.969 1.62 5.333 6.666 0.889 1.334 1.95 2.567 2.667 4 0.629 1.257 0.455 2.903 1.333 4 3.2 4 8.572 2.763 12 5.334 0.795 0.596 0.822 1.814 1.334 2.666 0.824 1.374 1.95 2.567 2.666 4 0.629 1.257 0.49 2.876 1.334 4 1.45 1.934 8.62 1.675 10.666 1.334 1.387-0.231 2.609-1.532 4-1.334 1.968 0.281 3.448 2.038 5.334 2.667 3.406 1.135 9.95-1.398 13.333-2.667 1.64-0.615 11.172-3.354 12-6.666 1.717-6.87-7.959 2.626 1.333-6.667 1.133-1.133 2.667-1.778 4-2.667 1.334-0.889 2.567-1.95 4-2.666 3.643-1.822 13.011-2.526 14.667-6.667 1.241-3.102-1.711-18.478 1.333-20 2.365-1.183 6.428 4 8 4 3.43 0 7.931-6.995 9.334-9.333 3.495-5.826-1.15 0.965 2.666-6.667 4.363-8.725 0.769 0.846 6.667-8 0.78-1.169 0.705-2.743 1.333-4 3.148-6.296 2.89-1.563 4-9.333 0.283-1.982-1.563-7.188 4-5.334 4.985 1.662 5.607 9.205 9.334 12 1.144 0.859 7.612-0.957 10.666 1.334 7.244 5.433-10.508 1.967-9.333 6.666 0.389 1.555 2.749 1.666 4 2.667 0.982 0.785 1.661 1.912 2.667 2.667 0.795 0.596 2.115 0.506 2.666 1.333 3.696 5.544-12.518 3.262-10.666 10.667 0.241 0.964 1.333 1.673 1.333 2.666 0 8.082-9.336 6.335-13.333 9.334-6.577 4.932 10.353 1.647 1.333 10.666-2.266 2.267-5.734 3.067-8 5.334-0.703 0.702-0.557 2.045-1.333 2.666-3.618 2.895-8.618 3.285-12 6.667-5.292 5.291 5.108 1.628 6.666 2.667 2.388 1.592-1.328 3.548-2.666 5.333-0.597 0.795-0.737 1.872-1.334 2.667-0.841 1.121-5.741 5.035-5.333 6.666 1.121 4.483 6.354-1.886 4 4-0.91 2.274-7.65 9.542-6.667 12 1.695 4.237 11.351 1.298 8 8-0.444 0.889-1.871 0.737-2.666 1.334-1.006 0.754-1.685 1.881-2.667 2.666-1.963 1.571-6.458 3.085-5.333 5.334 0.397 0.795 1.795-0.175 2.666 0 3.497 0.699 8.532 2.656 9.334 6.666 0.524 2.624-1.016 9.968 0 12 0.444 0.889 1.964 0.631 2.666 1.334 2.667 2.666-0.444 3.111 4 4 4.145 0.829 4.037 0.574 5.334-2.667 0.522-1.305 1.102-2.614 1.333-4 0.219-1.315-1.109-3.26 0-4 0.464-0.31 9.178 3.795 12 2.667 1.167-0.467 1.881-1.685 2.667-2.667 3.601-4.502 4-7.726 4-13.333 0-2.223-0.994-4.679 0-6.667 0.444-0.889 1.871-0.737 2.666-1.333 1.006-0.755 1.778-1.778 2.667-2.667 3.56-3.561 6.376-7.128 8-12 0.579-1.738 1.032-3.526 1.333-5.333 0.146-0.877-0.533-1.956 0-2.667 0.962-1.282 2.749-1.666 4-2.667 2.251-1.8 7.238-5.905 6.667-9.333-1.132-6.794-2.868-1.206-4-8-0.219-1.315 1.333-4 0-4-1.613 0 1.942 10.908 2.667 10.667 5.307-1.77 1.026-13.027 2.666-14.667 0.645-0.645 6.333 0.556 8 0 4.364-1.455 4.081-3.434 6.667-6.667 0.785-0.981 2.104-1.542 2.667-2.666 0.397-0.795-0.795-2.269 0-2.667 0.889-0.444 1.692 1.138 2.666 1.333 1.308 0.262 2.762 0.496 4 0 2.693-1.077 8.203-10.506 9.334-13.333 0.522-1.305 0.339-3.006 1.333-4 0.629-0.629-0.843 2.386 0 2.667 1.333 0.444 2.795-0.611 4-1.334 3.437-2.062 4.289-9.072 5.333-9.333 1.364-0.341 2.614 1.564 4 1.333 0.236-0.039 7.334-5 8-5.333 1.257-0.629 2.667-0.889 4-1.333 1.334-0.445 2.614-1.565 4-1.334 1.581 0.264 2.48 2.16 4 2.667 2.53 0.843 5.782-1.479 8 0 0.74 0.493 0 1.778 0 2.667 0 7.219-1.222 6-6.666 10.666-1.432 1.227-2.552 2.793-4 4-0.873 0.727-9.596 5.071-6.667 8 0.994 0.994 4-0.072 4 1.334 0 1.354-6.377 3.169-8 5.333-3.665 4.887 8.54 3.64 0 9.333-1.722 1.148-13.333 2.569-13.333 4 0 2.614 6.759-0.277 5.333 4-0.883 2.648-10.165 1.028-12 1.334-1.386 0.231-2.614 1.102-4 1.333-1.315 0.219-2.891-0.74-4 0-6.507 4.338 9.482 2.444 6.667 6.667-1.017 1.524-3.595 0.754-5.334 1.333-0.942 0.314-1.692 1.138-2.666 1.333-13.514 2.703 5.811-3.27-8 1.334-1.334 0.444-3.372 0.076-4 1.333-0.445 0.889 1.964 0.631 2.666 1.333 1.133 1.133 2.93 2.42 2.667 4-1.036 6.214-5.161 2.495-8 5.334-2.986 2.985 4 3.647 4 6.666 0 5.613-11.877 1.211-12 1.334-0.889 0.889 2.02 1.588 2.667 2.666 0.723 1.205 1.855 2.695 1.333 4-0.595 1.488-2.867 1.534-4 2.667-0.703 0.703-0.889 1.778-1.333 2.667-0.445 0.889-1.17 1.686-1.334 2.666-0.107 0.643 0.756 11.245 0 12-0.702 0.703-1.964-0.63-2.666-1.333-1.133-1.133-3.8-2.867-2.667-4 1.383-1.383 13.262 12.072 12 13.333-0.751 0.752-8.64-1.066-10.667 4-0.99 2.476 0.439 5.37 0 8-0.433 2.603-2.157 6.157-4 8-0.702 0.703-2.352 0.391-2.666 1.334-0.315 0.942 1.138 1.692 1.333 2.666 0.261 1.308 0 2.667 0 4 0 1.334 0.219 2.685 0 4-0.231 1.387-1.962 2.743-1.333 4 0.877 1.755 6.756 1.334 8 1.334 0.889 0 2.666-0.889 2.666 0 0 0.993-1.744 0.964-2.666 1.333-16.757 6.703 9.981-4.991-8 4-0.647 0.323-8.243 1.455-5.334 5.333 3.33 4.44 8.287-1.95 10.667 4 0.495 1.238-0.219 2.685 0 4 0.841 5.049 2.2 2.8 1.333 8-0.231 1.387-1.855 2.695-1.333 4 2.104 5.261 9.333-0.441 9.333 5.334 0 2.237-4.76 5.979-5.333 6.666-1.026 1.231-1.666 2.749-2.667 4-0.785 0.982-2.666 1.41-2.666 2.667s2.104 1.542 2.666 2.667c0.398 0.795 0 1.777 0 2.666 0 1.334 0.219 2.685 0 4-0.231 1.387-2.113 2.831-1.333 4 1.479 2.219 5.713-1.372 8 0 5.534 3.321 0.959 13.44 2.667 16 0.493 0.74 1.777 0 2.666 0 3.41 0 8.958-1.606 10.667 2.667 3.166 7.914-2.915 0.091-1.333 8 0.493 2.465 5.333 2.819 5.333 5.333 0 2.523-7.285 10.048-5.333 12 1.111 1.111 5.555-1.111 6.666 0 1.149 1.149-1.319 9.347 1.334 12 0.598 0.599 13.693-0.73 14.666 0 4.108 3.081 2.667 9.061 2.667 13.334 0 0.889-0.629 2.038 0 2.666 5.518 5.518 12.032-5.587 16-4 5.378 2.152 1.184 16.294 2.667 20 0.879 2.199 5.343 4.01 6.666 5.334 2.092 2.092 0.575 4.574 2.667 6.666 0.935 0.935 6.703 2.112 8 1.334 1.053-0.632 2.576-5.885 5.333-5.334 8.552 1.711-0.466 4.078 8 2.667 1.387-0.231 2.903-0.455 4-1.333 1.252-1.001 1.147-3.494 2.667-4 0.943-0.315 0.964 1.744 1.333 2.666 0.974 2.435 1.017 5.474 4 6.667 1.238 0.495 2.735 0.422 4 0 4.693-1.564 5.313-5.272 6.667-9.333 0.444-1.334 0.209-3.157 1.333-4 1.067-0.8 2.685 0.219 4 0 1.387-0.231 2.743-0.705 4-1.334 1.434-0.716 2.999-1.415 4-2.666 1.905-2.381 2.002-10.002 4-12 0.629-0.629-0.628 2.038 0 2.666 2.134 2.134 5.867 1.423 8 0 1.765-1.176 9.142-10.285 10.667-10.666 0.964-0.241 0.34 2.666 1.333 2.666 1.862 0 6.004-8.677 6.667-10.666 0.579-1.739 0.754-3.595 1.333-5.334 0.315-0.942 1.139-1.692 1.334-2.666 0.261-1.308-0.943-3.058 0-4 0.702-0.703 0.538 2.07 1.333 2.666 2.634 1.976 5.366 1.581 8 0 4.021-2.412 4.571-7.923 8-10.666 1.097-0.878 2.876-0.49 4-1.334 0.795-0.596 0.782-1.839 1.333-2.666 1.233-1.849 2.768-3.485 4-5.334 0.552-0.827 0.631-1.964 1.334-2.666 0.702-0.703 1.871-0.737 2.666-1.334 1.654-1.24 8.401-7.779 9.334-9.333 0.814-1.357 3.724-10.344 4-12 0.266-1.599-0.32-7.681 0-8 0.702-0.703 1.692 1.138 2.666 1.333 6.291 1.259 8.296-3.258 10.667-8 0.444-0.889 1.138-1.692 1.333-2.666 0.156-0.778-0.129-6.538 0-6.667 0.994-0.994 2.614-1.102 4-1.333 2.631-0.439 5.37 0.438 8 0 1.387-0.231 3.007-0.34 4-1.334 0.629-0.628-0.215-1.804 0-2.666 0.862-3.449 3.203-2.396 0-6.667-2.909-3.879-2.868 1.657-4-4-0.766-3.832 0.182-5.018 2.667-8 4.907-5.889 6.589-6.635 13.333-9.333 0.991-0.396 7.926-2.568 8-2.667 3.25-4.333-1.229-3.896-2.666-5.333-1.674-1.674-1.677-4.606-1.334-6.667 1.322-7.931 4.295-6.961 8-10.667 3.815-3.814-2.2-3.443 1.334-9.333 2.277-3.795 2.968-1.206 4-5.333 0.215-0.863-0.175-1.795 0-2.667 0.275-1.378 1.102-2.614 1.333-4 0.68-4.08-0.06-8.18-1.333-12-0.445-1.333-1.103-2.614-1.334-4-0.556-3.338-0.376-13.151 1.334-16 0.646-1.078 1.777-1.778 2.666-2.667s1.661-1.912 2.667-2.666c0.795-0.597 1.964-0.631 2.667-1.334 0.702-0.702 0.63-1.964 1.333-2.666 2.665-2.666 10.335-3.534 13.333-5.334 2.156-1.293 3.322-3.825 5.334-5.333 0.795-0.596 2.115-0.506 2.666-1.333 0.493-0.74-0.174-1.795 0-2.667 0.276-1.378 0.889-2.667 1.334-4 0.444-1.333 0.61-2.795 1.333-4 0.647-1.078 1.778-1.778 2.667-2.667s1.499-2.199 2.666-2.666c0.804-0.322 14.67-0.222 16 0 1.387 0.231 2.614 1.102 4 1.333 1.315 0.219 2.735-0.422 4 0 1.759 0.586 8.419 6.171 9.334 8 0.347 0.695 0 8.655 0 9.333v4c0 1.334 0.596 2.808 0 4-2.868 5.735-3.513-4.244-6.667-2.666-0.795 0.397 0 1.777 0 2.666 0 0.908 0.024 11.982 0 12-1.422 1.067-3.556 0-5.333 0-0.889 0-1.927 0.493-2.667 0-0.66-0.44-1.297-5.369-4-2.666-0.692 0.692 0.734 9.443 0 10.666-4.915 8.191-7.36-4.64-12 0-0.608 0.608 0.74 15.014 0 16-2.34 3.12-8.867 0.317-12 2.667-2.57 1.927-0.927 6.897-1.333 9.333-0.231 1.387-1.103 2.614-1.334 4-0.219 1.316 0 2.667 0 4 0 1.334-0.942 3.058 0 4 1.352 1.352 7.009-1.002 8-1.333 2.667-0.889 5.228-2.205 8-2.667 3.299-0.549 9.016 0.995 12 0 1.521-0.506 2.48-2.16 4-2.666 1.265-0.422 2.735 0.421 4 0 1.521-0.507 2.567-1.95 4-2.667 1.257-0.629 2.876-0.49 4-1.333 0.829-0.622 2.621-6.394 2.667-6.667 0.608-3.647-1.516-4.575 2.667-6.667 1.5-0.75 7.986 1.331 8 1.334 2.226 0.371 20.047 0.436 22.666 0 4.665-0.778 7.336-4.556 12-5.334 1.315-0.219 2.685 0.22 4 0 1.387-0.231 2.614-1.102 4-1.333 4.411-0.735 3.784 1.197 8-1.333 1.078-0.647 1.543-2.105 2.667-2.667 0.795-0.398 1.804 0.216 2.667 0 3.914-0.979 6.387-4.543 10.666-1.333 3.355 2.515 3.801 19.583 1.334 22.666-1.001 1.252-2.513 2.072-4 2.667-4.115 1.646-2.319-1.759-4-4-0.597-0.795-1.964-0.631-2.667-1.333-1.27-1.27-0.952-5.397-4-1.334-2.512 3.35-0.846 8.423-5.333 10.667-2.559 1.279-4.217-1.742-6.667-1.333-6.178 1.029-6.954 11.315-12 13.333-4.967 1.987-3.654-3.127-8 2.667-0.533 0.711 0.174 1.795 0 2.666-0.747 3.737-3.608 9.935-8 10.667-5.407 0.901-3.902-6.358-8-5.333-5.507 1.376-1.987 12-8 12-6.07 0-2.575-1.242-5.333-4-0.703-0.703-1.872-0.737-2.667-1.334-1.006-0.754-1.542-2.104-2.667-2.666-3.791-1.896-6.598 3.231-8 5.333-3.218 4.827-1.95 2.567-4 6.667-0.444 0.889-0.822 1.814-1.333 2.666-0.824 1.374-1.534 2.867-2.667 4-6.616 6.617-5.222-12.962-10.666-9.333-0.827 0.551-0.889 1.778-1.334 2.667-0.444 0.889-1.138 1.692-1.333 2.666-0.261 1.308 0.219 2.685 0 4-0.231 1.387-1.102 2.614-1.333 4-0.699 4.194 1.056 8.018-1.334 12-1.73 2.884-6.015 6.114-9.333 6.667-1.315 0.219-2.762-0.495-4 0-1.167 0.467-1.661 1.912-2.667 2.667-0.795 0.596-1.871 0.737-2.666 1.333-1.006 0.754-1.589 2.02-2.667 2.667-6.109 3.665-2.549 0.421-6.667-2.667-2.273-1.705-9.571 4.706-13.333 5.333-6.592 1.099-9.948-4.718-16 1.334-1.813 1.813-4.949 12.293-4 14.666 0.467 1.167 1.542 2.105 2.667 2.667 2.759 1.38 4.649-1.994 6.666-2.667 1.265-0.421 2.667 0 4 0 2.667 0 5.37-0.438 8 0 1.387 0.231 2.614 1.103 4 1.334 2.631 0.438 5.37-0.439 8 0 1.387 0.231 2.614 1.102 4 1.333 3.148 0.525 5.115-0.975 8 1.333 1.252 1.001 1.293 3.176 2.667 4 3.63 2.178 4.592-1.11 6.667-2.666 0.795-0.597 2.666-2.327 2.666-1.334 0 1.603-1.777 2.667-2.666 4-1.438 2.157-2.445 4.594-4 6.667-0.755 1.006-1.913 1.661-2.667 2.667-1.537 2.049-1.084 4.167-4 5.333-1.238 0.495-2.685-0.219-4 0-1.386 0.231-2.622 1.609-4 1.333-1.233-0.246-1.542-2.104-2.667-2.666-1.59-0.795-3.59 0.348-5.333 0-1.378-0.276-2.614-1.565-4-1.334-1.845 0.308-7.249 5.541-8 6.667-0.78 1.169-0.164 3.22-1.333 4-6.279 4.186 1.607-10.342-6.667 0-1.145 1.431-0.612 3.649-1.333 5.333-2.513 5.864-2.979 1.871-4 8-0.22 1.315 1.192 3.404 0 4-1.125 0.563-2.02-1.588-2.667-2.666-2.533-4.222-0.926-8.871-8-5.334-2.46 1.23-6.526 4.455-8 6.667-0.78 1.169-0.705 2.743-1.333 4-0.717 1.433-2.16 2.48-2.667 4-0.422 1.265 0.219 2.685 0 4-0.656 3.938-2.736 8.207-4 12-1.508 4.524-2.667 7.176-2.667 12 0 1.333-0.686 2.857 0 4 3.048 5.079 4.953 2.032 8 0 2.97-1.98 4.496-2.619 6.667-5.333 1.001-1.252 1.534-2.867 2.667-4 0.702-0.703 1.839-1.885 2.666-1.334 6.319 4.213-3.226 3.888 4 5.334 1.99 0.398 10.81-0.794 12 0 2.376 1.583-6.091 10.143 1.334 12 0.862 0.215 1.904 0.457 2.666 0 2.6-1.56 9.232-9.131 10.667-12 0.629-1.257-0.072-4 1.333-4 3.21 0 0.325 5.657 1.334 6.666 0.628 0.629 1.777 0 2.666 0 1.334 0 2.718 0.367 4 0 1.911-0.546 3.448-2.038 5.334-2.666 0.843-0.281 1.841 0.33 2.666 0 1.488-0.595 2.609-1.872 4-2.667 2.589-1.479 5.232-2.893 8-4 1.305-0.522 2.743-1.962 4-1.333 0.889 0.444-0.822 1.814-1.333 2.666-2.552 4.254-5.49 5.36 2.667 4 0.98-0.163 1.724-1.019 2.666-1.333 1.778-0.444 3.556-0.889 5.334-1.333 0.889-0.445 1.724-1.019 2.666-1.334 4.622-1.54 8.595-1.476 8-2.666-0.444-0.889-2.666 0.339-2.666 1.333 0 2.347 4.348 1.217 8 0 2.828-0.943 5.411-2.521 8-4 3.959-2.262 6.32-3.885 10.666-5.333 1.334-0.445 3.007-2.327 4-1.334 3.556 3.556-8 5.334 2.667 5.334 4.018 0 10.961-5.432 14.667-6.667 2.447-0.816 4.393 1.009 6.666 1.333 1.76 0.252 3.556 0 5.334 0 2.222 0 4.761-1.143 6.666 0 6.026 3.616 0.487 3.641 2.667 8 0.444 0.889 1.778 0.889 2.667 1.334 0.889 0.444 1.692 1.138 2.666 1.333 1.308 0.261 2.685-0.219 4 0 2.773 0.462 5.189 2.667 8 2.667 0.903 0 10.647-2.687 12-1.334 0 2.076-0.421 6.245 1.334 8 0.628 0.629 1.795-0.174 2.666 0 7.392 1.479 11.705 5.334 20 5.334 1.334 0 3.404-1.193 4 0 0.563 1.124-1.777 1.777-2.666 2.666s-1.882 1.685-2.667 2.667c-1.001 1.251-1.385 3.039-2.667 4-0.711 0.533-1.804-0.216-2.666 0-8.705 2.176 5.037 0.716-6.667 2.667-2.63 0.438-5.36 0.377-8 0-1.814-0.259-3.501-1.334-5.333-1.334-11.715 0 8.866 3.922-6.667 1.334-2.773-0.462-5.189-2.667-8-2.667s-5.227 3.129-8 2.667c-9.407-1.568 1.178-4.197-8-2.667-1.729 0.288-19.081 5.977-20 6.667-0.795 0.596-0.964 1.744-1.333 2.666-2.832 7.08-0.983 1.053 1.333 8 0.422 1.265-0.74 2.891 0 4 0.493 0.74 1.778 0 2.667 0h2.666c7.965 0 0.052-0.739 8 2.667 8.464 3.627 2.165-0.1 9.334 1.333 0.974 0.195 1.686 1.17 2.666 1.334 0.1 0.016 7.99-0.011 8 0 5.099 5.098-11.373 1.215 5.334 4 5.423 0.904 6.957-0.804 10.666-1.334 2.575-0.367 9.216-0.464 12 0 2.773 0.462 5.228 2.205 8 2.667 3.892 0.649 8.108-0.649 12 0 1.387 0.231 2.614 1.102 4 1.333 1.316 0.22 2.735-0.421 4 0 1.521 0.507 2.48 2.16 4 2.667 1.265 0.422 2.667 0 4 0 1.778 0 3.58 0.292 5.334 0 0.98-0.163 1.777-0.889 2.666-1.333 1.334-0.445 2.614-1.103 4-1.334 2.02-0.336 21.981-0.336 24 0 1.387 0.231 2.614 1.103 4 1.334 1.023 0.17 7.355-0.602 8 1.333 0.398 1.193-2.104 1.542-2.666 2.667-0.398 0.795-0.398 1.871 0 2.666 3.695 7.392 1.318-1.344 6.666 2.667 1.125 0.843 0.611 2.795 1.334 4 0.971 1.62 4 2.926 4 5.333 0 7.179-6.38 4.619-10.667 5.334-2.885 0.48-8.995 4.67-12 2.666-4.148-2.765 7.111-4.518-4-2.666-2.773 0.462-5.486 1.409-8 2.666-1.433 0.717-2.419 2.404-4 2.667-4.338 0.723-5.699-5.05-12-4-2.603 0.434-6.157 2.157-8 4-1.133 1.133-1.233 3.283-2.667 4-7.759 3.88 2.426-5.213-5.333-1.333-2.988 1.494-7.77 9.218-13.333 12-0.889 0.444-1.964 2.036-2.667 1.333-0.943-0.943 0.219-2.685 0-4-0.626-3.753-0.553-4.689-4-4-1.378 0.276-2.831 0.554-4 1.333-3.437 2.291-12.3 14.667-16 14.667-1.602 0-2.48-2.16-4-2.667-1.265-0.421-2.667 0-4 0s-2.735-0.421-4 0c-1.46 0.487-5.733 4.756-8 4-1.969-0.656 3.974-6.675-4-9.333-1.265-0.422-2.667 0-4 0-7.561 0-4.465 1.488-12 4-2.667 0.889-5.227 2.205-8 2.667-2.63 0.438-5.47-0.844-8 0-1.52 0.506-2.567 1.95-4 2.666-2.514 1.257-5.227 2.205-8 2.667-1.315 0.219-2.735 0.422-4 0-5.48-1.827-4-4.812-4-9.333 0-1.334 0.943-3.058 0-4-0.943-0.943-2.685-0.22-4 0-4.891 0.815-7.778 4.556-12 6.666-6.222 3.111-13.778 3.556-20 6.667-4.222 2.111-7.109 5.852-12 6.667-1.315 0.219-2.685-0.22-4 0-4.108 0.684-7.892 3.315-12 4-1.315 0.219-2.685-0.22-4 0-6.872 1.145-17.128 6.854-24 8-1.315 0.219-2.685-0.22-4 0-1.386 0.231-2.614 1.102-4 1.333-1.315 0.219-2.685-0.219-4 0-1.386 0.231-2.614 1.102-4 1.333-1.315 0.22-2.685-0.219-4 0-2.773 0.462-5.217 2.269-8 2.667-14.514 2.073 8.119-5.165-17.333 2.667-1.9 0.584-3.448 2.038-5.334 2.666-9.153 3.051 6.211-5.105-6.666 1.334-1.434 0.716-2.527 2.035-4 2.666-2.095 3.619-5.49 0.33-8 1.334-1.488 0.595-2.567 1.95-4 2.666-2.568 1.284-6.77 1.813-9.334 2.667-0.942 0.314-1.724 1.019-2.666 1.333-14.509 4.837 2.234-0.98-9.334 1.334-0.974 0.195-1.777 0.889-2.666 1.333-1.334 0.444-2.609 1.135-4 1.333-2.64 0.377-5.385-0.523-8 0-2.757 0.552-5.298 1.895-8 2.667-17.323 4.949 1.896-0.316-8 1.333-3.441-1.378-5.244 2.116-8 2.667-1.308 0.261-2.68-0.189-4 0-4.31 0.616-7.934 2.645-12 4-4.444 1.481-8.834 2.714-13.334 4-2.702 0.772-5.227 2.205-8 2.667-1.315 0.219-2.692-0.262-4 0-0.974 0.195-1.777 0.889-2.666 1.333-1.334 0-2.685-0.219-4 0-4.108 0.685-7.892 3.315-12 4-1.316 0.219-2.685-0.219-4 0-2.773 0.462-5.228 2.205-8 2.667-1.316 0.219-2.667 0-4 0-1.778 0.444-3.526 1.032-5.334 1.333-2.192 0.365-4.474-0.365-6.666 0-1.387 0.231-2.614 1.102-4 1.333-2.533 0.422-17.468 0.422-20 0-1.387-0.231-2.614-1.102-4-1.333-1.316-0.219-2.685 0.219-4 0-2.773-0.462-5.228-2.205-8-2.667-2.631-0.438-5.37 0.439-8 0-2.773-0.462-5.228-2.204-8-2.666-1.316-0.22-2.685 0.219-4 0-1.387-0.231-2.614-1.103-4-1.334-2.367-0.394-13.634-0.394-16 0-5.478 0.913-10.523 4.421-16 5.334-2.631 0.438-5.334 0-8 0" fill="#507a23"/>
 <path d="m650.83 813c5.41-5.062-0.458-0.268 6.672-3.833 1.433-0.717 2.445-3.056 4-2.667 1.363 0.341-0.03 3.659 1.333 4 3.11 0.777 4.795-5.333 8-5.333 6.293 0-3.74 5.763 4 2.666 2.976-1.19 4.839-4.806 8-5.333 1.387-0.231 2.595 1.333 4 1.333 1.406 0 2.614-1.102 4-1.333 9.99-1.665-2.097 1.333 8 1.333 8.04 0-0.039-4 8-4 8.595 0-0.502 5.501 8 2.667 1.521-0.507 2.749-1.666 4-2.667 0.982-0.785 1.41-2.666 2.667-2.666 0.889 0-0.889 2.666 0 2.666 1.257 0 1.41-2.666 2.667-2.666s1.588 2.02 2.666 2.666c3.631 2.179 8.45 2.131 12 0 1.374-0.824 3.176-1.292 4-2.666 0.686-1.144-0.942-3.058 0-4 1.297-1.297 0.303 4.593 4 5.333 5.926 1.185 2.963-2.963 5.334-5.333 2.622-2.622 11.917 7.077 13.333 0 1.126-5.633-3.546-3.093-5.333-6.667-1.374-2.747 2.644 0.663 6.666 1.333 1.465 0.244 15.514 0.244 16 0 9.79-4.895-8.456-1.771 1.334-6.666 0.253-0.127 6.718-0.298 10.666-2.667 1.374-0.824 3.039-1.385 4-2.667 0.534-0.711 0.629-2.038 0-2.666-0.628-0.629-2.666-0.889-2.666 0s1.795 0.174 2.666 0c1.378-0.276 2.667-0.889 4-1.334 1.334-0.444 2.614-1.102 4-1.333 1.357-0.226 7.004 0.66 8-1.333 0.445-0.889-1.744-0.965-2.666-1.334-1.305-0.522-2.614-1.102-4-1.333-1.316-0.219-4 1.333-4 0 0-1.405 2.666-0.889 4-1.333 1.333-0.445 2.622-1.058 4-1.334 0.871-0.174 1.795 0.175 2.666 0 2.892-0.578 13.411-4.038 16-5.333 1.434-0.717 2.567-1.95 4-2.667 2.514-1.257 5.805-0.91 8-2.666 1.252-1.001 3.056-2.446 2.667-4-0.568-2.273-12-1.019-12-1.334 0-0.439 12.654-3.806 13.333-4 1.352-0.386 2.667-0.889 4-1.333 1.334-0.444 2.831-0.554 4-1.333 8.847-5.898-0.724-2.305 8-6.667 1.257-0.629 3.556 0 4-1.333 0.398-1.193-3.229-1.543-2.666-2.667 0.596-1.193 2.684 0.219 4 0 5.549-0.925 2.314-1.216 6.666-2.667 2.846-0.948 9.286-2.371 12-4 6.016-3.609 1.372-2.666-1.333-2.666h-5.333c-0.889 0-2.667 0.889-2.667 0 0-3.671 3.74-2.401 5.333-2.667 1.808-0.301 3.595-0.754 5.334-1.333 0.942-0.315 1.744-0.965 2.666-1.334 1.305-0.522 4 0.072 4-1.333 0-2.565-12.875 0.437-4-4 7.216-3.608 3.006-0.335 8-1.333 1.378-0.276 2.649-0.948 4-1.334 1.762-0.503 3.595-0.754 5.334-1.333 4.016-1.339 6.947-4.807 10.666-6.667 1.257-0.628 2.903-0.455 4-1.333 1.252-1.001 1.385-3.039 2.667-4 0.711-0.533 1.804 0.216 2.667 0 0.964-0.241 1.692-1.138 2.666-1.333 1.308-0.262 3.058 0.942 4 0 0.703-0.703-1.777-0.889-2.666-1.334-0.889-0.444-1.693-1.138-2.667-1.333-2.424-0.485-6.909 1.818-4-4 0.864-1.729 8.509-2.86 9.333-5.333 0.323-0.967-8.641-1.975-9.333-2.667-0.629-0.629 2.667 0.889 2.667 0 0-2.393-4.975-0.974-6.667-2.667-0.629-0.628 0.629-2.038 0-2.666-3.556-3.556-4.444 0-8 0-1.405 0-2.595-1.334-4-1.334-8.023 0 0.023 4-8 4-4.352 0 1.611-10.112 1.333-10.666-0.397-0.795-1.804-0.216-2.666 0-3.724 0.931-3.158 2.994-6.667 5.333-7.155 4.77-2.827-3.529-8-2.667-5.58 0.93-8.033 6.16-12 9.334-1.251 1.001-2.667 1.777-4 2.666s-2.667 3.556-4 2.667c-3.182-2.121 4.71-10.548-4-12-4.403-0.734-8.333 5.444-12 6.667-1.265 0.421-2.807-0.597-4 0-0.889 0.444-0.34 2.666-1.333 2.666-5.353 0 0.418-6.361-6.667-4-4.756 1.586-4.897 8.893-9.333 10.667-1.238 0.495-2.934-0.8-4 0-1.467 1.1-0.576 6.667-4 6.667-1.603 0-2.42-2.93-4-2.667-1.86 0.31-2.115 4-4 4-6.766 0 2.229-11.113-6.667-9.333-1.233 0.246-1.661 1.912-2.667 2.666-0.795 0.597-1.814 0.822-2.666 1.334-1.374 0.824-2.567 1.95-4 2.666-1.257 0.629-2.876 0.49-4 1.334-2.186 1.639-0.563 5.807-4 6.666-1.22 0.305-2.02-1.588-2.667-2.666-0.723-1.206-0.076-3.372-1.333-4-2.365-1.183-6.428 4-8 4-1.257 0 2.666-1.41 2.666-2.667 0-0.994-2.046 0.557-2.666 1.333-1.242 1.552-1.778 3.556-2.667 5.334-0.444 0.889-0.34 2.666-1.333 2.666-0.114 0 0.145-11.125 0-12-0.188-1.127-2.791-5.333-4-5.333-2.744 0-7.144 7.336-8 9.333-0.872 2.034-1.37 7.171-2.667 9.334-2.569 4.281-5.89 3.037-9.333 5.333-1.569 1.046-2.793 2.551-4 4-1.026 1.231-1.065 4-2.667 4-5.416 0 0.343-11.406-5.333-8-1.617 0.97-2.793 2.551-4 4-1.026 1.231-1.065 4-2.667 4-1.827 0-1.265-7.589-1.333-8-0.231-1.386-0.889-2.667-1.334-4-0.444-1.333-0.209-3.157-1.333-4-3.21-2.407-7.954 3.212-9.333 4-10.191 5.823 1.464-1.333-6.667-1.333-2.698 0-8.544 7.818-12 6.666-0.477-0.159 0.802-9.865 0-10.666-0.943-0.943-2.735 0.421-4 0-8.405-2.802 0.466-8-8-8-1.405 0-4 2.738-4 1.333 0-3.771 8-4.229 8-8 0-2.404-7.589-0.717-8-1.333-2.351-3.527 4.942-5.494 5.333-6.667 0.909-2.725-10.261-0.522-10.666-1.333-0.563-1.125 2.104-1.543 2.666-2.667 0.82-1.639 2.153-3.694 1.334-5.333-0.563-1.125-2.02 1.588-2.667 2.666-0.723 1.206 0 3.556-1.333 4-2.592 0.864-3.464-6.532-4-6.666-1.555-0.389-2.567 1.95-4 2.666-2.894 1.447-6.44 1.22-9.334 2.667-1.124 0.562-1.542 3.229-2.666 2.667-2.386-1.193 2.385-6.808 0-8-3.924-1.962-2.746 13.801-6.667 4-0.522-1.305-0.889-2.667-1.333-4-0.445-1.334-1.103-2.614-1.334-4-0.221-1.326 1.358-6.138-2.666-5.334-8.549 1.71-5.447 15.887-12 9.334-1.988-1.988 0-7.111-2.667-8-2.419-0.807-3.177 8.925-9.333 4-0.769-0.615-7.574-11.183-10.667-10.667-1.608 0.268-5.949 6.566-6.667 8-0.628 1.257-0.209 3.157-1.333 4-1.067 0.8-2.857-0.686-4 0-5.333 3.2 0.444 5.244-6.667 6.667-3.729 0.745-5.047-8.715-8-1.334-1.219 3.049 3.098 11.57 2.667 12-1.692 1.692-12.478-1.791-14.667-2.666-0.922-0.369-1.964-2.036-2.666-1.334-3.655 3.655 5.552 7.672 2.666 12-0.493 0.74-1.777 0-2.666 0-1.778 0-3.58 0.293-5.334 0-0.98-0.163-1.692-1.138-2.666-1.333-1.308-0.261-3.058 0.943-4 0-0.01-0.01 6.772-4.421 5.333 1.333-0.389 1.555-2.567 1.95-4 2.667-1.876 0.938-7.85 2.217-8 2.667-0.398 1.192 1.881 1.685 2.667 2.666 1.001 1.252 2.16 2.48 2.666 4 1.912 5.735-2.96 5.334-6.666 5.334h2.666c2.455 0 11.184 0.733 12 4 0.305 1.219-1.542 2.104-2.666 2.666-1.639 0.82-3.595 0.754-5.334 1.334-0.942 0.314-1.692 1.138-2.666 1.333-1.619 0.324-7.615-0.386-8 0-0.703 0.703 1.744 0.964 2.666 1.333 2.821 1.129 8.919 2.208 5.334 4-2.922 1.461-13.079-9.46-16-8-2.411 1.205-0.712 6.446-1.334 8-2.068 5.172-9.554 3.166-10.666 4-0.174 0.131-1.119 6.775-4 5.334-4.277-2.138-1.751-10.667-8-10.667-5.189 0-2.332 5.501-8 2.667-4.873-2.437-5.455-11.515-8-10.667-1.334 0.444-0.164 3.22-1.334 4-2.092 1.395-3.37-3.763-5.333-5.333-4.421-3.538-10.557 0.24-12 0-2.561-0.427-4.767-4.808-8-4-0.964 0.241-0.822 1.814-1.333 2.666-0.825 1.374-1.95 2.567-2.667 4-0.629 1.257 0 3.556-1.333 4-0.655 0.219-4.111-4.963-6.667-6.666-1.169-0.78-2.614-1.103-4-1.334-1.315-0.219-2.667 0-4 0s-2.857-0.686-4 0c-3.97 2.383-1.058 4.957-5.333 6.667-10.415 4.166 2.545-3.97-8-1.333-3.873 0.968 1.576 4.897-4 2.666-2.883-1.153-4.251-4.541-8-2.666-4.543 2.271 1.859 5.064 2.666 5.333 1.265 0.422 3.058-0.943 4 0 0.943 0.943 0.597 2.807 0 4-0.149 0.3-13.649 8.07-13.333 9.333 1.381 5.524 11.017 0.069 12 4 0.389 1.555-1.778 2.667-2.667 4-4.399 6.6-5.083 4.867-10.666 9.334-0.982 0.785-3.065 1.474-2.667 2.666 1.067 3.2 6.933 0.356 8 0 9.697-3.232 0.081-1.212 2.667 2.667 0.739 1.109 2.666 0 4 0 0.889 0 1.812 0.244 2.666 0 2.302-0.658 4.426-1.826 6.667-2.667 1.316-0.493 2.831-2.113 4-1.333 2.753 1.836-2.57 7.418-2.667 8-0.731 4.391 4.248 7.739 8 6.667 3.195-0.913 8.824-4.928 10.667-8 0.723-1.206 0.34-3.007 1.333-4 0.629-0.629-0.628 2.038 0 2.666 0.994 0.994 2.649 1.72 4 1.334 2.137-0.611 3.627-2.578 5.334-4 0.965-0.805 1.777-3.556 2.666-2.667 0.994 0.994-1.102 2.614-1.333 4-0.219 1.315 0 2.667 0 4s-0.8 2.933 0 4c3.647 4.863 4.966-1.333 8-1.333 0.889 0 0 1.777 0 2.666 0 2.667 0.438 5.37 0 8-0.231 1.387-1.962 2.743-1.333 4 1.638 3.277 3.058-5.202 6.666-4 1.265 0.422 0 2.667 0 4 1.334 0.889 2.42 2.404 4 2.667 1.599 0.266 11.275-4.483 12-4 1.11 0.74-0.596 2.807 0 4 0.844 1.687 2.954 2.431 4 4 1.56 2.339 0.679 6.012 2.667 8 2.214 2.214 11.598 0.797 12 1.333 2.976 3.968-4.366 9.334 4 9.334 1.405 0 2.614-1.103 4-1.334 1.315-0.219 2.685 0.22 4 0 1.386-0.231 2.614-1.564 4-1.333 8.033 1.339-0.138 6.667 8 6.667 4.496 0 9.595-3.091 13.333-5.334 1.374-0.824 2.398-2.666 4-2.666 2.628 0-2.364 4.302 0 6.666 0.943 0.943 2.934-0.8 4 0 2.54 1.905-0.624 10.875 4 9.334 2.805-0.935 6.57-6.049 8-5.334 1.434 0.717 1.293 3.176 2.667 4 1.956 1.174 10.118-1.725 12-2.666 1.433-0.717 2.398-2.667 4-2.667s2.419 2.403 4 2.667c1.386 0.231 2.667-0.889 4-1.334 4.206-1.402 13.076-4.709 17.333-4 1.387 0.231 2.614 1.103 4 1.334 1.315 0.219 2.685-0.22 4 0 1.387 0.231 2.614 1.102 4 1.333 6.565 1.094 17.436-1.094 24 0 10.53 1.755-2.4 1.333 8 1.333" fill="#475b1d"/>
 <path d="m605.5 1007.6c-8.852 11.939 6.425 23.029-1.333 34.667-1.436 2.153-96.123 2.708-108 6.667-38.829 12.942-83.899 5.316-124 12-14.837 2.472-17.704 14.345-30.667 18.666-19.073 6.358-41.552-12.712-60-5.333-9.648 3.859-6.278 17.445-16 21.333-2.476 0.991-5.713-1.372-8 0-5.501 3.301-0.633 7.933-2.667 12-3.79 7.582-28.367 4.83-25.333 20 1.303 6.515 24.845 1.334 29.333 1.334 9.901 0 17.015 7.841 25.334 12 11.963 5.981 73.824 0 90.666 0 46.152 0-13.554 15.926 2.667 21.333 12.564 4.188 38.722-12.852 52-4 3.388 2.259-7.67 7.161-5.333 10.667 2.127 3.191 63.072 6.512 72 8 32.302 5.383 62.014-14.776 94.666-9.334 35.56 5.927 196.54 8.577 232 2.667 13.109-2.185 24.387-11.398 36-13.333 16.787-2.798 35.395 5.535 52 0 7.598-2.533 11.568-10.595 20-12 19.834-3.306 40.581 3.236 60 0 11.114-1.853 19.369-12.562 32-14.667 17.189-2.865 36.007 5.325 48-10.667 2.291-3.054-0.635-13.524 0-17.333 2.275-13.648 37.188-4.877 34.667-20-2.294-13.765-81.577-8.263-96-10.667-47.525-7.92-92.592 3.235-128-2.666-23.38-3.897-42.462-16.188-65.333-20-29.052-4.842-59.004 0.465-88-5.334-17.434-3.486-46.152 6.386-60-4-8.353-6.264 10.666-23.2 10.666-32" fill="#dbdad5"/>
 <path d="m593.23 1010.6c29.198-12.86 21.599-60.28 21.599-87.318 0-22.813 5.334-44.693 5.334-68 0-2.98-4.037-49.371 6.666-38.667 1.101 1.101-13.524-0.952-14.666-1.333-9.683-3.227-23.982-12.252-32-18.667-18.769-15.015-50.88-26.702-74.667-30.666-65.153-10.859-59.037-60.371-86.667-88-7.061-7.061-20.513-15.642-30.666-17.334-4.754-0.792-21.192 1.617-24-4-4.173-8.345 45.669-6.33 54.666 2.667 15.127 15.127 21.347 48.013 38.667 65.333 21.903 21.903 68.802 37.245 101.33 42.667 5.778 0.963 45.518 12.409 46.667 6.667 1.365-6.825-22.587-29.201-26.667-36-5.148-8.582-22.933-48.2-28-52-4.625-3.469-40.22-7.664-46.666-17.334-15.899-23.847-56.142-89.579-86.667-94.666-24.393-4.066-128.68 27.772-132 26.666-9.534-3.178 33.635-24.545 36-25.333 10.821-3.607 94.15-13.249 93.333-17.333-1.719-8.595-19.444-16.778-25.333-22.667-35.266-35.266-58.667-34.667-108-2.667-2.498 1.621-30.591 13.409-32 12-2.238-2.238 35.598-33.132 41.333-36 8.341-4.17 30.196-7.529 36-13.333 0.102-0.102-12.4-4.956-22.666-6.667-23.959-3.993-54.667 1.433-54.667 0 0-1.856 23.017-4.947 25.333-5.333 44.071-7.345 60.158 0.079 100 20 67.584 33.792 96.697 150.78 168 162.67 27.283 4.547-19.356-50.529-22.666-54.667-21.616-27.02-51.973-48.523-84-61.333-2.796-1.119-27.475-15.434-26.667-18.667 2.92-11.681 72.931 26.398 81.333 32 30.295 20.197 65.524 50.475 72 89.333 1.012 6.071-1.278 18.778 1.334 24 1.951 3.903 35.738 40.096 42.666 49.334 6.516 8.688 15.945 33.278 21.334 38.666 1.45 1.45 0.601-9.203 5.333-18.666 6.947-13.893 5.153-29.635-2.667-42.667-25.831-43.053-34.635-93.143-42.666-141.33-3.402-20.411-10.193-31.654-20-48-6.495-10.826-18.05-22.966-20-34.667-2.746-16.476-18.997-40.66-26.667-56-8.37-16.74-8.067-31.634-18.667-45.766-7.266-9.689-20.637-24.881-30.666-31.567-14.755-9.837-28.947-23.028-41.334-35.415-1.571-1.571-13.872-5.844-13.333-8 4.314-17.255 61.623 19.801 65.333 24.748 3.051 4.067 12.299 27.702 16 24 7.152-7.151 10.45-19.674 16-28 5.539-8.308 70.651-73.333 73.334-73.333 0.774 0-15.679 24.598-17.334 26.666-9.353 11.692-17.677 23.241-25.333 36-8.46 14.101-40.035 47.064-29.333 64.901 6.774 11.291 10.727 27.181 18.666 37.766 3.958 5.277 9.447 22.724 14.667 25.333 1.446 0.723 3.182-30.879 4-33.333 9.782-29.346 18.503-61.061 34.667-88 16.709-27.849 52.826-46.053 82.666-56 3.67-1.223 30.307-5.226 29.334-1.333-2.216 8.861-64.002 30.668-72 37.333-23.723 19.769-27.57 41.805-41.334 69.333-10.497 20.994-22.665 90.669-12 112 14.56 29.12 41.334 55.855 41.334 92 0 13.195 10.594 103.72 18.666 105.33 12.928 2.585 32.556-23.926 42.667-30.667 73.325-48.883 64.486-58.607 114.67-121.33 11.792-14.741 26.089-29.513 34.666-46.667 15.798-31.596 24.364-70.707 45.334-98.667 19.222-25.629 32.37-59.617 66.666-65.333 2.773-0.462 6.013-4.654 8-2.667 3.8 3.799-27.267 22.347-29.333 24-8.669 6.935-30.828 52.485-34.667 64-0.831 2.495-12.326 27.892-12 28 15.561 5.187 102.46-46.666 136-46.666 4.617 0 25.753-1.827 28 2.666 2.465 4.929-55.816 19.495-61.333 21.334-39.807 13.269-83.672 26.174-108 62.666-2.044 3.066-15.203 17.317-14.667 20 2.748 13.737 100.88-7.122 104-4 11.632 11.632-64.791 20-69.333 20-48.332 0-69.49 26.927-93.333 66.667-27.945 46.574-106.74 72.212-133.33 152-2.061 6.183-11.5 67.278-9.333 68 5.707 1.902 14.392-24.471 17.333-28 23.254-27.904 31.422-75.17 62.667-96 48.503-32.335 113.28-46.658 169.33-56 18.499-3.083 25.524-26.714 41.334-30.667 35.486-8.871 70.686-2.666 106.67-2.666 6.545 0 75.659-2.016 76-1.334 1.495 2.989-52.306 8.496-57.333 9.334-14.366 2.394-33.368 9.105-48 6.666-19.131-3.188-40.977-13.511-60-4-11.489 5.745-20.369 15.518-32 21.334-3.793 1.896-26.578 9.156-28 12-0.715 1.43 12.973 1.273 13.333 1.333 14.567 2.428 29.446 2.908 44 5.333 56.575 9.429 70.541 16.487 128-2.666 7.169-2.39 58.492-9.859 60-5.334 1.125 3.374-19.205 8.624-21.333 9.334-12.894 4.298-70.56 22.666-80 22.666-40.58 0-50.763-4.46-88-10.666-14.27-2.379-29.73 2.378-44 0-8.558-1.427-15.298-7.883-24-9.334-46.218-7.703-134.38 41.4-161.33 77.334-8.999 11.997-54.172 47.656-45.334 65.333 3.094 6.186 52.577-21.526 60-24 19.979-6.659 44.998-2.499 64-12 8.349-4.174 10.539-14.603 18.667-18.667 6.35-3.175 13.647-2.431 20-6.666 20.409-13.607 3.95-54.667 77.333-54.667 9.748 0-18.868 6.152-26.666 12-16.902 12.677-17.169 36.335-34.667 48-11.75 7.833-21.856 21.114-33.333 28-33.136 19.882-78.046 15.023-112 32-9.314 4.657-17.539 11.436-26.667 16-6.025 3.012-11.077 9.232-13.333 16-22.667 32-7.359 121.18-5.334 133.33 1.903 11.416 5.334 50.667 21.334 62.667-1.344 6.719-80.276-9.057-94.667 5.333" fill="#c17730"/>
 <path d="m624.88 1009.3l-0.213-0.261" fill-opacity="0" stroke="#000" stroke-linecap="round"/>
</svg>
